<svg width="361" height="247" viewBox="0 0 361 247" fill="none" xmlns="http://www.w3.org/2000/svg">
<rect width="361" height="246.683" rx="32" fill="white"/>
<path d="M280.032 76.7342L273.047 92.395H270.8L277.762 77.2902H268.634V75.5295H280.032V76.7342ZM290.677 84.9816C290.229 85.5145 289.692 85.9431 289.067 86.2674C288.449 86.5917 287.77 86.7539 287.028 86.7539C286.055 86.7539 285.206 86.5145 284.48 86.0357C283.762 85.5569 283.206 84.8851 282.812 84.0202C282.418 83.1476 282.221 82.1862 282.221 81.1359C282.221 80.0085 282.434 78.993 282.858 78.0895C283.291 77.186 283.901 76.4948 284.688 76.0161C285.476 75.5373 286.395 75.2979 287.445 75.2979C289.113 75.2979 290.426 75.9234 291.384 77.1744C292.349 78.4177 292.832 80.1166 292.832 82.2711V82.8966C292.832 86.1786 292.183 88.5763 290.886 90.0899C289.588 91.5958 287.631 92.368 285.013 92.4066H284.596V90.5996H285.048C286.816 90.5687 288.175 90.1092 289.125 89.2212C290.075 88.3254 290.592 86.9122 290.677 84.9816ZM287.376 84.9816C288.094 84.9816 288.754 84.7615 289.357 84.3214C289.967 83.8812 290.411 83.3368 290.689 82.6881V81.8309C290.689 80.4255 290.384 79.2826 289.774 78.4022C289.164 77.5219 288.391 77.0817 287.457 77.0817C286.515 77.0817 285.758 77.4447 285.187 78.1706C284.615 78.8887 284.329 79.8386 284.329 81.0201C284.329 82.1707 284.603 83.1206 285.152 83.8696C285.708 84.611 286.449 84.9816 287.376 84.9816ZM295.6 78.7729C295.6 77.7613 295.921 76.9273 296.561 76.2709C297.21 75.6145 298.04 75.2863 299.052 75.2863C300.079 75.2863 300.909 75.6184 301.542 76.2825C302.183 76.9389 302.504 77.7922 302.504 78.8424V79.6648C302.504 80.6842 302.179 81.5182 301.531 82.1669C300.89 82.8078 300.071 83.1283 299.075 83.1283C298.071 83.1283 297.241 82.8078 296.585 82.1669C295.928 81.5182 295.6 80.6571 295.6 79.5837V78.7729ZM297.199 79.6648C297.199 80.2672 297.368 80.7653 297.708 81.1591C298.048 81.5452 298.504 81.7383 299.075 81.7383C299.623 81.7383 300.064 81.5491 300.396 81.1707C300.735 80.7923 300.905 80.2749 300.905 79.6185V78.7729C300.905 78.1706 300.739 77.6725 300.407 77.2786C300.075 76.8848 299.623 76.6879 299.052 76.6879C298.48 76.6879 298.029 76.8848 297.697 77.2786C297.365 77.6725 297.199 78.186 297.199 78.8192V79.6648ZM303.813 88.2597C303.813 87.2481 304.133 86.418 304.774 85.7693C305.423 85.1129 306.253 84.7847 307.265 84.7847C308.276 84.7847 309.106 85.109 309.755 85.7577C310.404 86.4064 310.728 87.2674 310.728 88.3408V89.1632C310.728 90.1749 310.404 91.0089 309.755 91.6653C309.114 92.3139 308.292 92.6383 307.288 92.6383C306.284 92.6383 305.454 92.3178 304.797 91.6768C304.141 91.0282 303.813 90.1671 303.813 89.0937V88.2597ZM305.411 89.1632C305.411 89.7733 305.581 90.2753 305.921 90.6691C306.261 91.0552 306.716 91.2483 307.288 91.2483C307.844 91.2483 308.288 91.0591 308.62 90.6807C308.952 90.2946 309.118 89.7733 309.118 89.1169V88.2597C309.118 87.6497 308.948 87.1516 308.608 86.7655C308.276 86.3794 307.828 86.1863 307.265 86.1863C306.716 86.1863 306.268 86.3794 305.921 86.7655C305.581 87.1439 305.411 87.6574 305.411 88.3061V89.1632ZM299.562 91.1208L298.345 90.3563L306.581 77.1744L307.797 77.9389L299.562 91.1208Z" fill="#0088F0"/>
<path d="M270.905 107.76C270.905 107.199 271.014 106.695 271.233 106.247C271.455 105.799 271.761 105.454 272.153 105.211C272.548 104.967 272.997 104.846 273.501 104.846C274.28 104.846 274.91 105.116 275.389 105.655C275.872 106.194 276.114 106.912 276.114 107.807V107.876C276.114 108.433 276.006 108.934 275.791 109.378C275.579 109.818 275.275 110.162 274.876 110.409C274.481 110.656 274.027 110.779 273.512 110.779C272.736 110.779 272.107 110.509 271.624 109.97C271.145 109.431 270.905 108.717 270.905 107.828V107.76ZM271.888 107.876C271.888 108.511 272.035 109.02 272.327 109.404C272.623 109.788 273.018 109.981 273.512 109.981C274.009 109.981 274.404 109.787 274.696 109.399C274.989 109.008 275.135 108.461 275.135 107.76C275.135 107.132 274.985 106.624 274.686 106.237C274.39 105.845 273.995 105.65 273.501 105.65C273.018 105.65 272.629 105.842 272.333 106.226C272.036 106.61 271.888 107.16 271.888 107.876ZM282.174 107.876C282.174 108.747 281.975 109.448 281.576 109.981C281.178 110.513 280.638 110.779 279.958 110.779C279.264 110.779 278.717 110.559 278.319 110.118V112.873H277.34V104.952H278.234L278.282 105.586C278.68 105.093 279.234 104.846 279.942 104.846C280.63 104.846 281.173 105.105 281.571 105.623C281.973 106.141 282.174 106.862 282.174 107.786V107.876ZM281.195 107.765C281.195 107.12 281.058 106.61 280.783 106.237C280.508 105.863 280.131 105.676 279.651 105.676C279.059 105.676 278.615 105.939 278.319 106.464V109.198C278.611 109.72 279.059 109.981 279.662 109.981C280.131 109.981 280.503 109.796 280.778 109.425C281.056 109.052 281.195 108.498 281.195 107.765ZM284.749 103.566V104.952H285.817V105.708H284.749V109.256C284.749 109.485 284.797 109.658 284.892 109.774C284.987 109.887 285.149 109.944 285.378 109.944C285.491 109.944 285.646 109.922 285.844 109.88V110.673C285.586 110.744 285.336 110.779 285.093 110.779C284.656 110.779 284.326 110.647 284.104 110.382C283.882 110.118 283.771 109.743 283.771 109.256V105.708H282.729V104.952H283.771V103.566H284.749ZM288.028 110.673H287.049V104.952H288.028V110.673ZM286.97 103.434C286.97 103.275 287.018 103.141 287.113 103.032C287.212 102.923 287.356 102.868 287.546 102.868C287.737 102.868 287.881 102.923 287.98 103.032C288.079 103.141 288.128 103.275 288.128 103.434C288.128 103.593 288.079 103.725 287.98 103.831C287.881 103.936 287.737 103.989 287.546 103.989C287.356 103.989 287.212 103.936 287.113 103.831C287.018 103.725 286.97 103.593 286.97 103.434ZM289.339 107.76C289.339 107.199 289.448 106.695 289.667 106.247C289.889 105.799 290.196 105.454 290.587 105.211C290.982 104.967 291.431 104.846 291.936 104.846C292.715 104.846 293.344 105.116 293.823 105.655C294.306 106.194 294.548 106.912 294.548 107.807V107.876C294.548 108.433 294.44 108.934 294.225 109.378C294.014 109.818 293.709 110.162 293.31 110.409C292.916 110.656 292.461 110.779 291.946 110.779C291.171 110.779 290.541 110.509 290.058 109.97C289.579 109.431 289.339 108.717 289.339 107.828V107.76ZM290.323 107.876C290.323 108.511 290.469 109.02 290.762 109.404C291.058 109.788 291.453 109.981 291.946 109.981C292.443 109.981 292.838 109.787 293.131 109.399C293.423 109.008 293.57 108.461 293.57 107.76C293.57 107.132 293.42 106.624 293.12 106.237C292.824 105.845 292.429 105.65 291.936 105.65C291.453 105.65 291.063 105.842 290.767 106.226C290.471 106.61 290.323 107.16 290.323 107.876ZM296.7 104.952L296.732 105.671C297.169 105.121 297.74 104.846 298.445 104.846C299.654 104.846 300.264 105.528 300.275 106.892V110.673H299.297V106.887C299.293 106.475 299.198 106.17 299.011 105.972C298.828 105.775 298.54 105.676 298.149 105.676C297.832 105.676 297.553 105.761 297.314 105.93C297.074 106.099 296.887 106.321 296.753 106.596V110.673H295.775V104.952H296.7ZM307.551 110.673H306.568V104.153L304.595 104.878V103.989L307.398 102.937H307.551V110.673Z" fill="#8794BA"/>
<path d="M279.372 147.318C279.372 148.16 279.148 148.909 278.7 149.565C278.26 150.221 277.661 150.735 276.904 151.106C277.785 151.484 278.48 152.036 278.989 152.762C279.507 153.488 279.765 154.31 279.765 155.229C279.765 156.689 279.271 157.851 278.283 158.716C277.302 159.581 276.009 160.013 274.402 160.013C272.781 160.013 271.479 159.581 270.499 158.716C269.526 157.843 269.039 156.681 269.039 155.229C269.039 154.318 269.286 153.496 269.781 152.762C270.283 152.029 270.974 151.472 271.854 151.094C271.105 150.723 270.514 150.21 270.082 149.554C269.649 148.897 269.433 148.152 269.433 147.318C269.433 145.897 269.889 144.77 270.8 143.936C271.711 143.102 272.912 142.685 274.402 142.685C275.885 142.685 277.082 143.102 277.993 143.936C278.912 144.77 279.372 145.897 279.372 147.318ZM277.623 155.183C277.623 154.241 277.321 153.473 276.719 152.878C276.124 152.283 275.344 151.986 274.379 151.986C273.414 151.986 272.638 152.279 272.051 152.866C271.472 153.453 271.182 154.225 271.182 155.183C271.182 156.141 271.464 156.894 272.028 157.442C272.599 157.99 273.391 158.264 274.402 158.264C275.406 158.264 276.194 157.99 276.765 157.442C277.337 156.886 277.623 156.133 277.623 155.183ZM274.402 144.445C273.561 144.445 272.877 144.708 272.352 145.233C271.835 145.75 271.576 146.457 271.576 147.353C271.576 148.21 271.831 148.905 272.341 149.438C272.858 149.963 273.545 150.225 274.402 150.225C275.26 150.225 275.943 149.963 276.453 149.438C276.97 148.905 277.229 148.21 277.229 147.353C277.229 146.495 276.962 145.797 276.429 145.256C275.897 144.715 275.221 144.445 274.402 144.445ZM293.353 144.121L286.368 159.782H284.121L291.082 144.677H281.955V142.916H293.353V144.121ZM295.6 146.16C295.6 145.148 295.921 144.314 296.561 143.658C297.21 143.001 298.04 142.673 299.052 142.673C300.079 142.673 300.909 143.005 301.542 143.669C302.183 144.326 302.504 145.179 302.504 146.229V147.051C302.504 148.071 302.179 148.905 301.531 149.554C300.89 150.194 300.071 150.515 299.075 150.515C298.071 150.515 297.241 150.194 296.585 149.554C295.928 148.905 295.6 148.044 295.6 146.97V146.16ZM297.199 147.051C297.199 147.654 297.368 148.152 297.708 148.546C298.048 148.932 298.504 149.125 299.075 149.125C299.623 149.125 300.064 148.936 300.396 148.557C300.735 148.179 300.905 147.662 300.905 147.005V146.16C300.905 145.557 300.739 145.059 300.407 144.665C300.075 144.271 299.623 144.075 299.052 144.075C298.48 144.075 298.029 144.271 297.697 144.665C297.365 145.059 297.199 145.573 297.199 146.206V147.051ZM303.813 155.646C303.813 154.635 304.133 153.805 304.774 153.156C305.423 152.5 306.253 152.171 307.265 152.171C308.276 152.171 309.106 152.496 309.755 153.144C310.404 153.793 310.728 154.654 310.728 155.727V156.55C310.728 157.562 310.404 158.396 309.755 159.052C309.114 159.701 308.292 160.025 307.288 160.025C306.284 160.025 305.454 159.704 304.797 159.064C304.141 158.415 303.813 157.554 303.813 156.48V155.646ZM305.411 156.55C305.411 157.16 305.581 157.662 305.921 158.056C306.261 158.442 306.716 158.635 307.288 158.635C307.844 158.635 308.288 158.446 308.62 158.067C308.952 157.681 309.118 157.16 309.118 156.504V155.646C309.118 155.036 308.948 154.538 308.608 154.152C308.276 153.766 307.828 153.573 307.265 153.573C306.716 153.573 306.268 153.766 305.921 154.152C305.581 154.531 305.411 155.044 305.411 155.693V156.55ZM299.562 158.508L298.345 157.743L306.581 144.561L307.797 145.326L299.562 158.508Z" fill="#EF2A82"/>
<path d="M270.905 175.146C270.905 174.586 271.014 174.082 271.233 173.634C271.455 173.186 271.761 172.841 272.153 172.597C272.548 172.354 272.997 172.233 273.501 172.233C274.28 172.233 274.91 172.502 275.389 173.042C275.872 173.581 276.114 174.298 276.114 175.194V175.263C276.114 175.82 276.006 176.32 275.791 176.764C275.579 177.205 275.275 177.549 274.876 177.796C274.481 178.042 274.027 178.166 273.512 178.166C272.736 178.166 272.107 177.896 271.624 177.357C271.145 176.817 270.905 176.103 270.905 175.215V175.146ZM271.888 175.263C271.888 175.897 272.035 176.407 272.327 176.791C272.623 177.175 273.018 177.367 273.512 177.367C274.009 177.367 274.404 177.173 274.696 176.786C274.989 176.394 275.135 175.848 275.135 175.146C275.135 174.519 274.985 174.011 274.686 173.623C274.39 173.232 273.995 173.036 273.501 173.036C273.018 173.036 272.629 173.228 272.333 173.613C272.036 173.997 271.888 174.547 271.888 175.263ZM282.174 175.263C282.174 176.133 281.975 176.835 281.576 177.367C281.178 177.9 280.638 178.166 279.958 178.166C279.264 178.166 278.717 177.945 278.319 177.505V180.26H277.34V172.338H278.234L278.282 172.973C278.68 172.479 279.234 172.233 279.942 172.233C280.63 172.233 281.173 172.492 281.571 173.01C281.973 173.528 282.174 174.249 282.174 175.173V175.263ZM281.195 175.152C281.195 174.506 281.058 173.997 280.783 173.623C280.508 173.25 280.131 173.063 279.651 173.063C279.059 173.063 278.615 173.325 278.319 173.851V176.585C278.611 177.106 279.059 177.367 279.662 177.367C280.131 177.367 280.503 177.182 280.778 176.812C281.056 176.438 281.195 175.885 281.195 175.152ZM284.749 170.953V172.338H285.817V173.094H284.749V176.643C284.749 176.872 284.797 177.045 284.892 177.161C284.987 177.274 285.149 177.33 285.378 177.33C285.491 177.33 285.646 177.309 285.844 177.267V178.06C285.586 178.131 285.336 178.166 285.093 178.166C284.656 178.166 284.326 178.034 284.104 177.769C283.882 177.505 283.771 177.129 283.771 176.643V173.094H282.729V172.338H283.771V170.953H284.749ZM288.028 178.06H287.049V172.338H288.028V178.06ZM286.97 170.821C286.97 170.662 287.018 170.528 287.113 170.419C287.212 170.309 287.356 170.255 287.546 170.255C287.737 170.255 287.881 170.309 287.98 170.419C288.079 170.528 288.128 170.662 288.128 170.821C288.128 170.979 288.079 171.111 287.98 171.217C287.881 171.323 287.737 171.376 287.546 171.376C287.356 171.376 287.212 171.323 287.113 171.217C287.018 171.111 286.97 170.979 286.97 170.821ZM289.339 175.146C289.339 174.586 289.448 174.082 289.667 173.634C289.889 173.186 290.196 172.841 290.587 172.597C290.982 172.354 291.431 172.233 291.936 172.233C292.715 172.233 293.344 172.502 293.823 173.042C294.306 173.581 294.548 174.298 294.548 175.194V175.263C294.548 175.82 294.44 176.32 294.225 176.764C294.014 177.205 293.709 177.549 293.31 177.796C292.916 178.042 292.461 178.166 291.946 178.166C291.171 178.166 290.541 177.896 290.058 177.357C289.579 176.817 289.339 176.103 289.339 175.215V175.146ZM290.323 175.263C290.323 175.897 290.469 176.407 290.762 176.791C291.058 177.175 291.453 177.367 291.946 177.367C292.443 177.367 292.838 177.173 293.131 176.786C293.423 176.394 293.57 175.848 293.57 175.146C293.57 174.519 293.42 174.011 293.12 173.623C292.824 173.232 292.429 173.036 291.936 173.036C291.453 173.036 291.063 173.228 290.767 173.613C290.471 173.997 290.323 174.547 290.323 175.263ZM296.7 172.338L296.732 173.057C297.169 172.508 297.74 172.233 298.445 172.233C299.654 172.233 300.264 172.915 300.275 174.279V178.06H299.297V174.274C299.293 173.861 299.198 173.556 299.011 173.359C298.828 173.161 298.54 173.063 298.149 173.063C297.832 173.063 297.553 173.147 297.314 173.317C297.074 173.486 296.887 173.708 296.753 173.983V178.06H295.775V172.338H296.7ZM309.381 178.06H304.336V177.357L307.001 174.395C307.396 173.948 307.668 173.585 307.816 173.306C307.967 173.024 308.043 172.733 308.043 172.433C308.043 172.032 307.921 171.702 307.678 171.445C307.435 171.187 307.111 171.059 306.705 171.059C306.219 171.059 305.84 171.198 305.568 171.476C305.3 171.751 305.166 172.136 305.166 172.629H304.188C304.188 171.921 304.415 171.348 304.87 170.911C305.328 170.473 305.94 170.255 306.705 170.255C307.421 170.255 307.987 170.443 308.403 170.821C308.819 171.194 309.027 171.693 309.027 172.317C309.027 173.075 308.544 173.978 307.578 175.025L305.515 177.261H309.381V178.06Z" fill="#8794BA"/>
<path d="M139.093 76.537C139.041 75.1603 140.116 73.9965 141.493 74.0065C153.491 74.0931 165.166 78.0571 174.756 85.3418C185.009 93.1305 192.244 104.233 195.229 116.758C198.213 129.284 196.763 142.456 191.124 154.032C185.485 165.607 176.007 174.87 164.305 180.24C152.603 185.611 139.4 186.758 126.947 183.486C114.494 180.214 103.561 172.725 96.0099 162.296C88.4593 151.866 84.7586 139.141 85.5383 126.289C86.2676 114.268 90.8741 102.832 98.6313 93.6784C99.5219 92.6274 101.105 92.5716 102.115 93.5084C103.125 94.4452 103.179 96.0197 102.293 97.0746C95.3183 105.379 91.1772 115.723 90.5179 126.591C89.808 138.291 93.177 149.876 100.051 159.37C106.925 168.865 116.878 175.683 128.215 178.661C139.552 181.64 151.571 180.596 162.224 175.706C172.877 170.817 181.506 162.385 186.639 151.847C191.772 141.309 193.093 129.317 190.376 117.915C187.659 106.512 181.072 96.4048 171.738 89.3143C163.067 82.7279 152.525 79.1234 141.681 78.9972C140.303 78.9812 139.145 77.9136 139.093 76.537Z" fill="#EF2A82"/>
<path d="M138.107 52.9947C138.03 51.008 139.579 49.3263 141.567 49.338C157.14 49.4301 172.381 54.0497 185.413 62.6719C199.447 71.9575 210.21 85.4163 216.183 101.148C222.156 116.881 223.037 134.091 218.702 150.351C214.367 166.611 205.035 181.099 192.022 191.769C179.01 202.44 162.975 208.754 146.181 209.82C129.387 210.887 112.682 206.652 98.4245 197.713C84.167 188.774 73.077 175.583 66.72 160.002C60.8172 145.534 59.2722 129.684 62.2322 114.394C62.6101 112.442 64.5625 111.253 66.4956 111.718C68.4287 112.182 69.6096 114.126 69.2403 116.079C66.6278 129.901 68.0535 144.211 73.3865 157.282C79.1736 171.467 89.2695 183.475 102.249 191.613C115.229 199.75 130.436 203.606 145.725 202.635C161.013 201.664 175.611 195.916 187.457 186.202C199.303 176.488 207.799 163.299 211.745 148.497C215.692 133.694 214.89 118.026 209.452 103.704C204.014 89.3822 194.216 77.1298 181.44 68.6765C169.666 60.8867 155.912 56.6857 141.847 56.5405C139.859 56.52 138.185 54.9814 138.107 52.9947Z" fill="#0088F0"/>
<path d="M132.711 128.37L132.971 125.81H135.601V126.413H133.525L133.37 127.813C133.621 127.665 133.907 127.591 134.226 127.591C134.694 127.591 135.065 127.746 135.34 128.056C135.615 128.364 135.753 128.781 135.753 129.308C135.753 129.836 135.61 130.254 135.323 130.559C135.038 130.862 134.64 131.014 134.128 131.014C133.674 131.014 133.304 130.888 133.017 130.637C132.73 130.385 132.567 130.037 132.527 129.593H133.144C133.184 129.887 133.289 130.109 133.458 130.259C133.627 130.407 133.85 130.482 134.128 130.482C134.431 130.482 134.668 130.378 134.84 130.171C135.014 129.964 135.101 129.679 135.101 129.315C135.101 128.971 135.007 128.697 134.819 128.49C134.633 128.281 134.385 128.176 134.075 128.176C133.79 128.176 133.567 128.238 133.405 128.363L133.232 128.504L132.711 128.37ZM136.765 128.37L137.026 125.81H139.656V126.413H137.579L137.424 127.813C137.675 127.665 137.961 127.591 138.281 127.591C138.748 127.591 139.12 127.746 139.395 128.056C139.67 128.364 139.807 128.781 139.807 129.308C139.807 129.836 139.664 130.254 139.377 130.559C139.093 130.862 138.694 131.014 138.182 131.014C137.728 131.014 137.358 130.888 137.071 130.637C136.785 130.385 136.621 130.037 136.581 129.593H137.198C137.238 129.887 137.343 130.109 137.512 130.259C137.681 130.407 137.905 130.482 138.182 130.482C138.485 130.482 138.722 130.378 138.894 130.171C139.068 129.964 139.155 129.679 139.155 129.315C139.155 128.971 139.061 128.697 138.873 128.49C138.687 128.281 138.439 128.176 138.129 128.176C137.845 128.176 137.621 128.238 137.459 128.363L137.286 128.504L136.765 128.37ZM141.944 129.029H140.223V128.497H141.944V129.029ZM145.074 125.807V126.36H144.954C144.447 126.37 144.042 126.52 143.741 126.812C143.441 127.103 143.267 127.513 143.22 128.042C143.49 127.732 143.859 127.577 144.327 127.577C144.773 127.577 145.129 127.734 145.395 128.049C145.663 128.364 145.797 128.771 145.797 129.269C145.797 129.798 145.652 130.221 145.363 130.538C145.076 130.855 144.691 131.014 144.207 131.014C143.716 131.014 143.317 130.826 143.012 130.45C142.706 130.071 142.553 129.585 142.553 128.99V128.74C142.553 127.795 142.754 127.074 143.156 126.575C143.56 126.075 144.161 125.819 144.958 125.807H145.074ZM144.217 128.12C143.994 128.12 143.788 128.187 143.6 128.32C143.412 128.454 143.282 128.622 143.209 128.825V129.064C143.209 129.487 143.304 129.828 143.495 130.087C143.685 130.345 143.922 130.474 144.207 130.474C144.501 130.474 144.731 130.366 144.898 130.15C145.067 129.934 145.152 129.651 145.152 129.301C145.152 128.948 145.066 128.664 144.894 128.447C144.725 128.229 144.499 128.12 144.217 128.12ZM149.322 129.219H150.034V129.752H149.322V130.943H148.666V129.752H146.329V129.368L148.628 125.81H149.322V129.219ZM147.069 129.219H148.666V126.702L148.589 126.843L147.069 129.219Z" fill="#8794BA"/>
<path d="M39.1223 34.0854H36.255L35.611 35.8716H34.6803L37.2938 29.0277H38.0835L40.7017 35.8716H39.7757L39.1223 34.0854ZM36.5276 33.3428H38.8544L37.6886 30.1417L36.5276 33.3428ZM41.2798 33.2864C41.2798 32.4935 41.4631 31.8637 41.8298 31.3967C42.1964 30.9267 42.6821 30.6917 43.2869 30.6917C43.9074 30.6917 44.3916 30.911 44.7394 31.3497L44.7817 30.7857H45.5761V35.7494C45.5761 36.4075 45.3802 36.9261 44.9885 37.3053C44.6 37.6845 44.0766 37.8741 43.4186 37.8741C43.0519 37.8741 42.6931 37.7957 42.3421 37.639C41.9912 37.4824 41.7232 37.2677 41.5384 36.9951L41.9896 36.4733C42.3625 36.934 42.8185 37.1643 43.3575 37.1643C43.7805 37.1643 44.1095 37.0452 44.3446 36.807C44.5827 36.5689 44.7018 36.2336 44.7018 35.8011V35.364C44.354 35.7651 43.8792 35.9657 43.2775 35.9657C42.6821 35.9657 42.1996 35.7259 41.8298 35.2465C41.4631 34.767 41.2798 34.1136 41.2798 33.2864ZM42.1541 33.3851C42.1541 33.9585 42.2716 34.4098 42.5067 34.7388C42.7417 35.0647 43.0707 35.2277 43.4938 35.2277C44.0422 35.2277 44.4448 34.9785 44.7018 34.4803V32.1582C44.4354 31.6725 44.0359 31.4297 43.5032 31.4297C43.0801 31.4297 42.7495 31.5942 42.5114 31.9232C42.2732 32.2522 42.1541 32.7395 42.1541 33.3851ZM49.0028 35.9657C48.3134 35.9657 47.7524 35.74 47.32 35.2888C46.8875 34.8344 46.6713 34.228 46.6713 33.4697V33.3099C46.6713 32.8053 46.7669 32.3557 46.9581 31.9608C47.1523 31.5628 47.4218 31.2526 47.7665 31.0301C48.1144 30.8045 48.4904 30.6917 48.8947 30.6917C49.5559 30.6917 50.0698 30.9095 50.4364 31.345C50.8031 31.7806 50.9864 32.4042 50.9864 33.2158V33.5778H47.5409C47.5535 34.0792 47.6992 34.485 47.9781 34.7952C48.2601 35.1023 48.6173 35.2559 49.0498 35.2559C49.3569 35.2559 49.617 35.1932 49.8301 35.0679C50.0432 34.9425 50.2296 34.7764 50.3894 34.5696L50.9206 34.9832C50.4944 35.6382 49.8551 35.9657 49.0028 35.9657ZM48.8947 31.4061C48.5437 31.4061 48.2491 31.5346 48.011 31.7916C47.7728 32.0454 47.6255 32.4027 47.5691 32.8633H50.1168V32.7975C50.0917 32.3557 49.9727 32.0141 49.7596 31.7728C49.5465 31.5284 49.2582 31.4061 48.8947 31.4061ZM54.9583 34.5226C54.9583 34.2876 54.869 34.1058 54.6904 33.9773C54.5149 33.8457 54.2063 33.7329 53.7644 33.6389C53.3257 33.5449 52.9763 33.4321 52.7162 33.3005C52.4592 33.1688 52.2681 33.0122 52.1427 32.8304C52.0205 32.6487 51.9594 32.4324 51.9594 32.1817C51.9594 31.765 52.1349 31.4124 52.4859 31.1241C52.84 30.8358 53.2912 30.6917 53.8396 30.6917C54.4162 30.6917 54.8831 30.8405 55.2404 31.1382C55.6007 31.4359 55.7809 31.8167 55.7809 32.2804H54.9066C54.9066 32.0423 54.8048 31.837 54.6011 31.6647C54.4005 31.4923 54.1467 31.4061 53.8396 31.4061C53.5231 31.4061 53.2756 31.4751 53.0969 31.613C52.9183 31.7509 52.829 31.931 52.829 32.1535C52.829 32.3635 52.912 32.5217 53.0781 32.6283C53.2442 32.7348 53.5435 32.8367 53.9759 32.9338C54.4115 33.031 54.7641 33.1469 55.0335 33.2817C55.303 33.4164 55.502 33.5794 55.6305 33.7705C55.7621 33.9585 55.8279 34.1889 55.8279 34.4615C55.8279 34.9159 55.6462 35.2809 55.2827 35.5567C54.9192 35.8293 54.4476 35.9657 53.8678 35.9657C53.4604 35.9657 53.1001 35.8936 52.7867 35.7494C52.4733 35.6053 52.2273 35.4047 52.0487 35.1478C51.8732 34.8877 51.7855 34.6072 51.7855 34.3064H52.6551C52.6708 34.5978 52.7867 34.8297 53.0029 35.002C53.2223 35.1713 53.5106 35.2559 53.8678 35.2559C54.1969 35.2559 54.4601 35.1901 54.6575 35.0585C54.8581 34.9237 54.9583 34.7451 54.9583 34.5226Z" fill="#8794BA"/>
</svg>
