<svg width="600" height="410" viewBox="0 0 600 410" fill="none" xmlns="http://www.w3.org/2000/svg">
<rect width="600" height="410" fill="white"/>
<rect x="70" y="102" width="66" height="52" fill="white"/>
<rect x="136" y="102" width="66" height="52" fill="white"/>
<path d="M169.117 132H168.027V124.775L165.841 125.578V124.594L168.947 123.428H169.117V132Z" fill="#172755"/>
<rect x="202" y="102" width="66" height="52" fill="white"/>
<path d="M237.144 132H231.554V131.221L234.507 127.939C234.945 127.443 235.246 127.041 235.41 126.732C235.578 126.42 235.662 126.098 235.662 125.766C235.662 125.32 235.527 124.955 235.257 124.67C234.988 124.385 234.628 124.242 234.179 124.242C233.64 124.242 233.22 124.396 232.919 124.705C232.622 125.01 232.474 125.436 232.474 125.982H231.39C231.39 125.197 231.642 124.562 232.146 124.078C232.654 123.594 233.331 123.352 234.179 123.352C234.972 123.352 235.599 123.561 236.06 123.978C236.521 124.393 236.751 124.945 236.751 125.637C236.751 126.477 236.216 127.477 235.146 128.637L232.861 131.115H237.144V132Z" fill="#172755"/>
<rect x="268" y="102" width="66" height="52" fill="white"/>
<path d="M299.13 127.207H299.945C300.456 127.199 300.859 127.064 301.152 126.803C301.445 126.541 301.591 126.187 301.591 125.742C301.591 124.742 301.093 124.242 300.097 124.242C299.628 124.242 299.253 124.377 298.972 124.646C298.695 124.912 298.556 125.266 298.556 125.707H297.472C297.472 125.031 297.718 124.471 298.21 124.025C298.706 123.576 299.335 123.352 300.097 123.352C300.902 123.352 301.533 123.564 301.99 123.99C302.447 124.416 302.675 125.008 302.675 125.766C302.675 126.137 302.554 126.496 302.312 126.844C302.074 127.191 301.747 127.451 301.333 127.623C301.802 127.771 302.164 128.018 302.417 128.361C302.675 128.705 302.804 129.125 302.804 129.621C302.804 130.387 302.554 130.994 302.054 131.443C301.554 131.893 300.904 132.117 300.103 132.117C299.302 132.117 298.65 131.9 298.146 131.467C297.646 131.033 297.396 130.461 297.396 129.75H298.486C298.486 130.199 298.632 130.559 298.925 130.828C299.218 131.098 299.611 131.232 300.103 131.232C300.626 131.232 301.027 131.096 301.304 130.822C301.581 130.549 301.72 130.156 301.72 129.645C301.72 129.148 301.568 128.768 301.263 128.502C300.958 128.236 300.519 128.1 299.945 128.092H299.13V127.207Z" fill="#172755"/>
<rect x="334" y="102" width="66" height="52" fill="white"/>
<path d="M368.13 129.135H369.314V130.02H368.13V132H367.04V130.02H363.156V129.381L366.976 123.469H368.13V129.135ZM364.386 129.135H367.04V124.951L366.912 125.186L364.386 129.135Z" fill="#172755"/>
<rect x="400" y="102" width="66" height="52" fill="white"/>
<path d="M430.052 127.723L430.486 123.469H434.857V124.471H431.406L431.148 126.797C431.566 126.551 432.04 126.428 432.572 126.428C433.349 126.428 433.966 126.686 434.423 127.201C434.88 127.713 435.109 128.406 435.109 129.281C435.109 130.16 434.871 130.853 434.394 131.361C433.921 131.865 433.259 132.117 432.408 132.117C431.654 132.117 431.039 131.908 430.562 131.49C430.085 131.072 429.814 130.494 429.747 129.756H430.773C430.839 130.244 431.013 130.613 431.294 130.863C431.576 131.109 431.947 131.232 432.408 131.232C432.912 131.232 433.306 131.061 433.591 130.717C433.88 130.373 434.025 129.898 434.025 129.293C434.025 128.723 433.869 128.266 433.556 127.922C433.247 127.574 432.835 127.4 432.32 127.4C431.847 127.4 431.476 127.504 431.206 127.711L430.919 127.945L430.052 127.723Z" fill="#172755"/>
<rect x="466" y="102" width="66" height="52" fill="white"/>
<path d="M499.808 123.463V124.383H499.609C498.765 124.398 498.093 124.648 497.593 125.133C497.093 125.617 496.804 126.299 496.726 127.178C497.175 126.662 497.789 126.404 498.566 126.404C499.308 126.404 499.9 126.666 500.341 127.189C500.787 127.713 501.009 128.389 501.009 129.217C501.009 130.096 500.769 130.799 500.289 131.326C499.812 131.853 499.171 132.117 498.367 132.117C497.55 132.117 496.888 131.805 496.38 131.18C495.872 130.551 495.619 129.742 495.619 128.754V128.338C495.619 126.768 495.953 125.568 496.621 124.74C497.292 123.908 498.29 123.482 499.615 123.463H499.808ZM498.384 127.307C498.013 127.307 497.671 127.418 497.359 127.641C497.046 127.863 496.83 128.143 496.708 128.478V128.877C496.708 129.58 496.867 130.146 497.183 130.576C497.499 131.006 497.894 131.221 498.367 131.221C498.855 131.221 499.238 131.041 499.515 130.682C499.796 130.322 499.937 129.852 499.937 129.27C499.937 128.684 499.794 128.211 499.509 127.852C499.228 127.488 498.853 127.307 498.384 127.307Z" fill="#172755"/>
<rect x="70" y="154" width="66" height="52" fill="white"/>
<path d="M105.062 176.078L101.529 184H100.392L103.914 176.359H99.2963V175.469H105.062V176.078Z" fill="#172755"/>
<rect x="136" y="154" width="66" height="52" fill="white"/>
<circle cx="168.5" cy="179.5" r="19.5" fill="#0088F0"/>
<path d="M170.728 177.695C170.728 178.121 170.615 178.5 170.388 178.832C170.165 179.164 169.863 179.424 169.48 179.611C169.925 179.803 170.277 180.082 170.535 180.449C170.796 180.816 170.927 181.232 170.927 181.697C170.927 182.436 170.677 183.023 170.177 183.461C169.681 183.898 169.027 184.117 168.214 184.117C167.394 184.117 166.736 183.898 166.24 183.461C165.747 183.02 165.501 182.432 165.501 181.697C165.501 181.236 165.626 180.82 165.876 180.449C166.13 180.078 166.48 179.797 166.925 179.605C166.546 179.418 166.247 179.158 166.029 178.826C165.81 178.494 165.701 178.117 165.701 177.695C165.701 176.977 165.931 176.406 166.392 175.984C166.853 175.562 167.46 175.352 168.214 175.352C168.964 175.352 169.57 175.562 170.031 175.984C170.496 176.406 170.728 176.977 170.728 177.695ZM169.843 181.674C169.843 181.197 169.691 180.809 169.386 180.508C169.085 180.207 168.691 180.057 168.203 180.057C167.714 180.057 167.322 180.205 167.025 180.502C166.732 180.799 166.585 181.189 166.585 181.674C166.585 182.158 166.728 182.539 167.013 182.816C167.302 183.094 167.703 183.232 168.214 183.232C168.722 183.232 169.121 183.094 169.41 182.816C169.699 182.535 169.843 182.154 169.843 181.674ZM168.214 176.242C167.789 176.242 167.443 176.375 167.177 176.641C166.915 176.902 166.785 177.26 166.785 177.713C166.785 178.146 166.914 178.498 167.171 178.768C167.433 179.033 167.781 179.166 168.214 179.166C168.648 179.166 168.994 179.033 169.251 178.768C169.513 178.498 169.644 178.146 169.644 177.713C169.644 177.279 169.509 176.926 169.24 176.652C168.97 176.379 168.628 176.242 168.214 176.242Z" fill="#EEEEF7"/>
<rect x="202" y="154" width="66" height="52" fill="white"/>
<circle cx="234.5" cy="179.5" r="19.5" fill="#0088F0"/>
<path d="M235.708 180.25C235.482 180.52 235.21 180.736 234.894 180.9C234.581 181.064 234.238 181.146 233.863 181.146C233.371 181.146 232.941 181.025 232.574 180.783C232.21 180.541 231.929 180.201 231.73 179.764C231.531 179.322 231.431 178.836 231.431 178.305C231.431 177.734 231.539 177.221 231.753 176.764C231.972 176.307 232.281 175.957 232.679 175.715C233.078 175.473 233.542 175.352 234.074 175.352C234.917 175.352 235.581 175.668 236.066 176.301C236.554 176.93 236.798 177.789 236.798 178.879V179.195C236.798 180.855 236.47 182.068 235.814 182.834C235.158 183.596 234.167 183.986 232.843 184.006H232.632V183.092H232.861C233.755 183.076 234.443 182.844 234.923 182.395C235.404 181.941 235.665 181.227 235.708 180.25ZM234.039 180.25C234.402 180.25 234.736 180.139 235.04 179.916C235.349 179.693 235.574 179.418 235.714 179.09V178.656C235.714 177.945 235.56 177.367 235.251 176.922C234.943 176.477 234.552 176.254 234.08 176.254C233.603 176.254 233.22 176.437 232.931 176.805C232.642 177.168 232.497 177.648 232.497 178.246C232.497 178.828 232.636 179.309 232.914 179.687C233.195 180.062 233.57 180.25 234.039 180.25Z" fill="#EEEEF7"/>
<rect x="268" y="154" width="66" height="52" fill="white"/>
<circle cx="300.5" cy="179.5" r="19.5" fill="#0088F0"/>
<path d="M297.247 184H296.158V176.775L293.972 177.578V176.594L297.078 175.428H297.247V184ZM305.773 180.361C305.773 181.631 305.556 182.574 305.122 183.191C304.689 183.809 304.011 184.117 303.089 184.117C302.179 184.117 301.505 183.816 301.068 183.215C300.63 182.609 300.404 181.707 300.388 180.508V179.061C300.388 177.807 300.605 176.875 301.039 176.266C301.472 175.656 302.152 175.352 303.078 175.352C303.996 175.352 304.671 175.646 305.105 176.236C305.539 176.822 305.761 177.728 305.773 178.955V180.361ZM304.689 178.879C304.689 177.961 304.56 177.293 304.302 176.875C304.044 176.453 303.636 176.242 303.078 176.242C302.523 176.242 302.119 176.451 301.865 176.869C301.611 177.287 301.48 177.93 301.472 178.797V180.531C301.472 181.453 301.605 182.135 301.871 182.576C302.14 183.014 302.546 183.232 303.089 183.232C303.624 183.232 304.021 183.025 304.279 182.611C304.54 182.197 304.677 181.545 304.689 180.654V178.879Z" fill="#EEEEF7"/>
<rect x="334" y="154" width="66" height="52" fill="white"/>
<path d="M363.247 184H362.158V176.775L359.972 177.578V176.594L363.078 175.428H363.247V184ZM369.986 184H368.896V176.775L366.71 177.578V176.594L369.816 175.428H369.986V184Z" fill="#172755"/>
<rect x="400" y="154" width="66" height="52" fill="white"/>
<path d="M429.247 184H428.158V176.775L425.972 177.578V176.594L429.078 175.428H429.247V184ZM438.013 184H432.423V183.221L435.376 179.939C435.814 179.443 436.115 179.041 436.279 178.732C436.447 178.42 436.531 178.098 436.531 177.766C436.531 177.32 436.396 176.955 436.126 176.67C435.857 176.385 435.497 176.242 435.048 176.242C434.509 176.242 434.089 176.396 433.789 176.705C433.492 177.01 433.343 177.436 433.343 177.982H432.259C432.259 177.197 432.511 176.562 433.015 176.078C433.523 175.594 434.201 175.352 435.048 175.352C435.841 175.352 436.468 175.561 436.929 175.978C437.39 176.393 437.621 176.945 437.621 177.637C437.621 178.477 437.085 179.477 436.015 180.637L433.73 183.115H438.013V184Z" fill="#172755"/>
<rect x="466" y="154" width="66" height="52" fill="white"/>
<path d="M495.247 184H494.158V176.775L491.972 177.578V176.594L495.078 175.428H495.247V184ZM499.999 179.207H500.814C501.326 179.199 501.728 179.064 502.021 178.803C502.314 178.541 502.46 178.187 502.46 177.742C502.46 176.742 501.962 176.242 500.966 176.242C500.497 176.242 500.122 176.377 499.841 176.646C499.564 176.912 499.425 177.266 499.425 177.707H498.341C498.341 177.031 498.587 176.471 499.08 176.025C499.576 175.576 500.205 175.352 500.966 175.352C501.771 175.352 502.402 175.564 502.859 175.99C503.316 176.416 503.544 177.008 503.544 177.766C503.544 178.137 503.423 178.496 503.181 178.844C502.943 179.191 502.617 179.451 502.203 179.623C502.671 179.771 503.033 180.018 503.287 180.361C503.544 180.705 503.673 181.125 503.673 181.621C503.673 182.387 503.423 182.994 502.923 183.443C502.423 183.893 501.773 184.117 500.972 184.117C500.171 184.117 499.519 183.9 499.015 183.467C498.515 183.033 498.265 182.461 498.265 181.75H499.355C499.355 182.199 499.501 182.559 499.794 182.828C500.087 183.098 500.48 183.232 500.972 183.232C501.496 183.232 501.896 183.096 502.173 182.822C502.451 182.549 502.589 182.156 502.589 181.645C502.589 181.148 502.437 180.768 502.132 180.502C501.828 180.236 501.388 180.1 500.814 180.092H499.999V179.207Z" fill="#172755"/>
<rect x="70" y="206" width="66" height="52" fill="white"/>
<path d="M99.2475 236H98.1576V228.775L95.9721 229.578V228.594L99.0776 227.428H99.2475V236ZM106.999 233.135H108.183V234.02H106.999V236H105.91V234.02H102.025V233.381L105.845 227.469H106.999V233.135ZM103.255 233.135H105.91V228.951L105.781 229.186L103.255 233.135Z" fill="#172755"/>
<rect x="136" y="206" width="66" height="52" fill="white"/>
<path d="M165.247 236H164.158V228.775L161.972 229.578V228.594L165.078 227.428H165.247V236ZM168.921 231.723L169.355 227.469H173.726V228.471H170.275L170.017 230.797C170.435 230.551 170.91 230.428 171.441 230.428C172.218 230.428 172.835 230.686 173.292 231.201C173.749 231.713 173.978 232.406 173.978 233.281C173.978 234.16 173.74 234.853 173.263 235.361C172.79 235.865 172.128 236.117 171.277 236.117C170.523 236.117 169.908 235.908 169.431 235.49C168.955 235.072 168.683 234.494 168.617 233.756H169.642C169.708 234.244 169.882 234.613 170.164 234.863C170.445 235.109 170.816 235.232 171.277 235.232C171.781 235.232 172.175 235.061 172.46 234.717C172.749 234.373 172.894 233.898 172.894 233.293C172.894 232.723 172.738 232.266 172.425 231.922C172.117 231.574 171.705 231.4 171.189 231.4C170.716 231.4 170.345 231.504 170.076 231.711L169.789 231.945L168.921 231.723Z" fill="#172755"/>
<rect x="202" y="206" width="66" height="52" fill="white"/>
<path d="M231.247 236H230.158V228.775L227.972 229.578V228.594L231.078 227.428H231.247V236ZM238.677 227.463V228.383H238.478C237.634 228.398 236.962 228.648 236.462 229.133C235.962 229.617 235.673 230.299 235.595 231.178C236.044 230.662 236.658 230.404 237.435 230.404C238.177 230.404 238.769 230.666 239.21 231.189C239.656 231.713 239.878 232.389 239.878 233.217C239.878 234.096 239.638 234.799 239.158 235.326C238.681 235.853 238.04 236.117 237.236 236.117C236.419 236.117 235.757 235.805 235.249 235.18C234.742 234.551 234.488 233.742 234.488 232.754V232.338C234.488 230.768 234.822 229.568 235.49 228.74C236.162 227.908 237.16 227.482 238.484 227.463H238.677ZM237.253 231.307C236.882 231.307 236.54 231.418 236.228 231.641C235.915 231.863 235.699 232.143 235.578 232.478V232.877C235.578 233.58 235.736 234.146 236.052 234.576C236.369 235.006 236.763 235.221 237.236 235.221C237.724 235.221 238.107 235.041 238.384 234.682C238.665 234.322 238.806 233.852 238.806 233.27C238.806 232.684 238.664 232.211 238.378 231.852C238.097 231.488 237.722 231.307 237.253 231.307Z" fill="#172755"/>
<rect x="268" y="206" width="66" height="52" fill="white"/>
<path d="M297.247 236H296.158V228.775L293.972 229.578V228.594L297.078 227.428H297.247V236ZM305.931 228.078L302.398 236H301.261L304.783 228.359H300.165V227.469H305.931V228.078Z" fill="#172755"/>
<rect x="334" y="206" width="66" height="52" fill="white"/>
<circle cx="366.5" cy="231.5" r="19.5" fill="#EF2A82"/>
<path d="M363.247 236H362.158V228.775L359.972 229.578V228.594L363.078 227.428H363.247V236ZM371.597 229.695C371.597 230.121 371.484 230.5 371.257 230.832C371.035 231.164 370.732 231.424 370.349 231.611C370.794 231.803 371.146 232.082 371.404 232.449C371.665 232.816 371.796 233.232 371.796 233.697C371.796 234.436 371.546 235.023 371.046 235.461C370.55 235.898 369.896 236.117 369.083 236.117C368.263 236.117 367.605 235.898 367.109 235.461C366.617 235.02 366.371 234.432 366.371 233.697C366.371 233.236 366.496 232.82 366.746 232.449C366.999 232.078 367.349 231.797 367.794 231.605C367.415 231.418 367.117 231.158 366.898 230.826C366.679 230.494 366.57 230.117 366.57 229.695C366.57 228.977 366.8 228.406 367.261 227.984C367.722 227.562 368.33 227.352 369.083 227.352C369.833 227.352 370.439 227.562 370.9 227.984C371.365 228.406 371.597 228.977 371.597 229.695ZM370.712 233.674C370.712 233.197 370.56 232.809 370.255 232.508C369.955 232.207 369.56 232.057 369.072 232.057C368.583 232.057 368.191 232.205 367.894 232.502C367.601 232.799 367.455 233.189 367.455 233.674C367.455 234.158 367.597 234.539 367.882 234.816C368.171 235.094 368.572 235.232 369.083 235.232C369.591 235.232 369.99 235.094 370.279 234.816C370.568 234.535 370.712 234.154 370.712 233.674ZM369.083 228.242C368.658 228.242 368.312 228.375 368.046 228.641C367.785 228.902 367.654 229.26 367.654 229.713C367.654 230.146 367.783 230.498 368.04 230.768C368.302 231.033 368.65 231.166 369.083 231.166C369.517 231.166 369.863 231.033 370.121 230.768C370.382 230.498 370.513 230.146 370.513 229.713C370.513 229.279 370.378 228.926 370.109 228.652C369.839 228.379 369.497 228.242 369.083 228.242Z" fill="#EEEEF7"/>
<rect x="400" y="206" width="66" height="52" fill="white"/>
<path d="M429.247 236H428.158V228.775L425.972 229.578V228.594L429.078 227.428H429.247V236ZM436.578 232.25C436.351 232.52 436.08 232.736 435.763 232.9C435.451 233.064 435.107 233.146 434.732 233.146C434.24 233.146 433.81 233.025 433.443 232.783C433.08 232.541 432.798 232.201 432.599 231.764C432.4 231.322 432.3 230.836 432.3 230.305C432.3 229.734 432.408 229.221 432.622 228.764C432.841 228.307 433.15 227.957 433.548 227.715C433.947 227.473 434.412 227.352 434.943 227.352C435.787 227.352 436.451 227.668 436.935 228.301C437.423 228.93 437.667 229.789 437.667 230.879V231.195C437.667 232.855 437.339 234.068 436.683 234.834C436.027 235.596 435.037 235.986 433.712 236.006H433.501V235.092H433.73C434.624 235.076 435.312 234.844 435.792 234.395C436.273 233.941 436.535 233.227 436.578 232.25ZM434.908 232.25C435.271 232.25 435.605 232.139 435.91 231.916C436.218 231.693 436.443 231.418 436.583 231.09V230.656C436.583 229.945 436.429 229.367 436.121 228.922C435.812 228.477 435.421 228.254 434.949 228.254C434.472 228.254 434.089 228.437 433.8 228.805C433.511 229.168 433.367 229.648 433.367 230.246C433.367 230.828 433.505 231.309 433.783 231.687C434.064 232.062 434.439 232.25 434.908 232.25Z" fill="#172755"/>
<rect x="466" y="206" width="66" height="52" fill="white"/>
<path d="M497.275 236H491.685V235.221L494.638 231.939C495.076 231.443 495.376 231.041 495.54 230.732C495.708 230.42 495.792 230.098 495.792 229.766C495.792 229.32 495.658 228.955 495.388 228.67C495.119 228.385 494.759 228.242 494.31 228.242C493.771 228.242 493.351 228.396 493.05 228.705C492.753 229.01 492.605 229.436 492.605 229.982H491.521C491.521 229.197 491.773 228.562 492.277 228.078C492.785 227.594 493.462 227.352 494.31 227.352C495.103 227.352 495.73 227.561 496.191 227.978C496.652 228.393 496.882 228.945 496.882 229.637C496.882 230.477 496.347 231.477 495.277 232.637L492.992 235.115H497.275V236ZM503.773 232.361C503.773 233.631 503.556 234.574 503.122 235.191C502.689 235.809 502.011 236.117 501.089 236.117C500.179 236.117 499.505 235.816 499.068 235.215C498.63 234.609 498.404 233.707 498.388 232.508V231.061C498.388 229.807 498.605 228.875 499.039 228.266C499.472 227.656 500.152 227.352 501.078 227.352C501.996 227.352 502.671 227.646 503.105 228.236C503.539 228.822 503.761 229.728 503.773 230.955V232.361ZM502.689 230.879C502.689 229.961 502.56 229.293 502.302 228.875C502.044 228.453 501.636 228.242 501.078 228.242C500.523 228.242 500.119 228.451 499.865 228.869C499.611 229.287 499.48 229.93 499.472 230.797V232.531C499.472 233.453 499.605 234.135 499.871 234.576C500.14 235.014 500.546 235.232 501.089 235.232C501.624 235.232 502.021 235.025 502.279 234.611C502.54 234.197 502.677 233.545 502.689 232.654V230.879Z" fill="#172755"/>
<rect x="70" y="258" width="66" height="52" fill="white"/>
<path d="M101.275 288H95.685V287.221L98.6381 283.939C99.0756 283.443 99.3764 283.041 99.5405 282.732C99.7084 282.42 99.7924 282.098 99.7924 281.766C99.7924 281.32 99.6576 280.955 99.3881 280.67C99.1186 280.385 98.7592 280.242 98.31 280.242C97.7709 280.242 97.351 280.396 97.0502 280.705C96.7533 281.01 96.6049 281.436 96.6049 281.982H95.5209C95.5209 281.197 95.7729 280.562 96.2768 280.078C96.7846 279.594 97.4623 279.352 98.31 279.352C99.103 279.352 99.7299 279.561 100.191 279.978C100.652 280.393 100.882 280.945 100.882 281.637C100.882 282.477 100.347 283.477 99.2768 284.637L96.9916 287.115H101.275V288ZM105.986 288H104.896V280.775L102.71 281.578V280.594L105.816 279.428H105.986V288Z" fill="#172755"/>
<rect x="136" y="258" width="66" height="52" fill="white"/>
<path d="M167.275 288H161.685V287.221L164.638 283.939C165.076 283.443 165.376 283.041 165.54 282.732C165.708 282.42 165.792 282.098 165.792 281.766C165.792 281.32 165.658 280.955 165.388 280.67C165.119 280.385 164.759 280.242 164.31 280.242C163.771 280.242 163.351 280.396 163.05 280.705C162.753 281.01 162.605 281.436 162.605 281.982H161.521C161.521 281.197 161.773 280.562 162.277 280.078C162.785 279.594 163.462 279.352 164.31 279.352C165.103 279.352 165.73 279.561 166.191 279.978C166.652 280.393 166.882 280.945 166.882 281.637C166.882 282.477 166.347 283.477 165.277 284.637L162.992 287.115H167.275V288ZM174.013 288H168.423V287.221L171.376 283.939C171.814 283.443 172.115 283.041 172.279 282.732C172.447 282.42 172.531 282.098 172.531 281.766C172.531 281.32 172.396 280.955 172.126 280.67C171.857 280.385 171.497 280.242 171.048 280.242C170.509 280.242 170.089 280.396 169.789 280.705C169.492 281.01 169.343 281.436 169.343 281.982H168.259C168.259 281.197 168.511 280.562 169.015 280.078C169.523 279.594 170.201 279.352 171.048 279.352C171.841 279.352 172.468 279.561 172.929 279.978C173.39 280.393 173.621 280.945 173.621 281.637C173.621 282.477 173.085 283.477 172.015 284.637L169.73 287.115H174.013V288Z" fill="#172755"/>
<rect x="202" y="258" width="66" height="52" fill="white"/>
<path d="M233.275 288H227.685V287.221L230.638 283.939C231.076 283.443 231.376 283.041 231.54 282.732C231.708 282.42 231.792 282.098 231.792 281.766C231.792 281.32 231.658 280.955 231.388 280.67C231.119 280.385 230.759 280.242 230.31 280.242C229.771 280.242 229.351 280.396 229.05 280.705C228.753 281.01 228.605 281.436 228.605 281.982H227.521C227.521 281.197 227.773 280.562 228.277 280.078C228.785 279.594 229.462 279.352 230.31 279.352C231.103 279.352 231.73 279.561 232.191 279.978C232.652 280.393 232.882 280.945 232.882 281.637C232.882 282.477 232.347 283.477 231.277 284.637L228.992 287.115H233.275V288ZM235.999 283.207H236.814C237.326 283.199 237.728 283.064 238.021 282.803C238.314 282.541 238.46 282.187 238.46 281.742C238.46 280.742 237.962 280.242 236.966 280.242C236.497 280.242 236.122 280.377 235.841 280.646C235.564 280.912 235.425 281.266 235.425 281.707H234.341C234.341 281.031 234.587 280.471 235.08 280.025C235.576 279.576 236.205 279.352 236.966 279.352C237.771 279.352 238.402 279.564 238.859 279.99C239.316 280.416 239.544 281.008 239.544 281.766C239.544 282.137 239.423 282.496 239.181 282.844C238.943 283.191 238.617 283.451 238.203 283.623C238.671 283.771 239.033 284.018 239.287 284.361C239.544 284.705 239.673 285.125 239.673 285.621C239.673 286.387 239.423 286.994 238.923 287.443C238.423 287.893 237.773 288.117 236.972 288.117C236.171 288.117 235.519 287.9 235.015 287.467C234.515 287.033 234.265 286.461 234.265 285.75H235.355C235.355 286.199 235.501 286.559 235.794 286.828C236.087 287.098 236.48 287.232 236.972 287.232C237.496 287.232 237.896 287.096 238.173 286.822C238.451 286.549 238.589 286.156 238.589 285.645C238.589 285.148 238.437 284.768 238.132 284.502C237.828 284.236 237.388 284.1 236.814 284.092H235.999V283.207Z" fill="#172755"/>
<rect x="268" y="258" width="66" height="52" fill="white"/>
<path d="M299.275 288H293.685V287.221L296.638 283.939C297.076 283.443 297.376 283.041 297.54 282.732C297.708 282.42 297.792 282.098 297.792 281.766C297.792 281.32 297.658 280.955 297.388 280.67C297.119 280.385 296.759 280.242 296.31 280.242C295.771 280.242 295.351 280.396 295.05 280.705C294.753 281.01 294.605 281.436 294.605 281.982H293.521C293.521 281.197 293.773 280.562 294.277 280.078C294.785 279.594 295.462 279.352 296.31 279.352C297.103 279.352 297.73 279.561 298.191 279.978C298.652 280.393 298.882 280.945 298.882 281.637C298.882 282.477 298.347 283.477 297.277 284.637L294.992 287.115H299.275V288ZM304.999 285.135H306.183V286.02H304.999V288H303.91V286.02H300.025V285.381L303.845 279.469H304.999V285.135ZM301.255 285.135H303.91V280.951L303.781 281.186L301.255 285.135Z" fill="#172755"/>
<rect x="334" y="258" width="66" height="52" fill="white"/>
<path d="M365.275 288H359.685V287.221L362.638 283.939C363.076 283.443 363.376 283.041 363.54 282.732C363.708 282.42 363.792 282.098 363.792 281.766C363.792 281.32 363.658 280.955 363.388 280.67C363.119 280.385 362.759 280.242 362.31 280.242C361.771 280.242 361.351 280.396 361.05 280.705C360.753 281.01 360.605 281.436 360.605 281.982H359.521C359.521 281.197 359.773 280.562 360.277 280.078C360.785 279.594 361.462 279.352 362.31 279.352C363.103 279.352 363.73 279.561 364.191 279.978C364.652 280.393 364.882 280.945 364.882 281.637C364.882 282.477 364.347 283.477 363.277 284.637L360.992 287.115H365.275V288ZM366.921 283.723L367.355 279.469H371.726V280.471H368.275L368.017 282.797C368.435 282.551 368.91 282.428 369.441 282.428C370.218 282.428 370.835 282.686 371.292 283.201C371.749 283.713 371.978 284.406 371.978 285.281C371.978 286.16 371.74 286.853 371.263 287.361C370.79 287.865 370.128 288.117 369.277 288.117C368.523 288.117 367.908 287.908 367.431 287.49C366.955 287.072 366.683 286.494 366.617 285.756H367.642C367.708 286.244 367.882 286.613 368.164 286.863C368.445 287.109 368.816 287.232 369.277 287.232C369.781 287.232 370.175 287.061 370.46 286.717C370.749 286.373 370.894 285.898 370.894 285.293C370.894 284.723 370.738 284.266 370.425 283.922C370.117 283.574 369.705 283.4 369.189 283.4C368.716 283.4 368.345 283.504 368.076 283.711L367.789 283.945L366.921 283.723Z" fill="#172755"/>
<rect x="400" y="258" width="66" height="52" fill="white"/>
<path d="M431.275 288H425.685V287.221L428.638 283.939C429.076 283.443 429.376 283.041 429.54 282.732C429.708 282.42 429.792 282.098 429.792 281.766C429.792 281.32 429.658 280.955 429.388 280.67C429.119 280.385 428.759 280.242 428.31 280.242C427.771 280.242 427.351 280.396 427.05 280.705C426.753 281.01 426.605 281.436 426.605 281.982H425.521C425.521 281.197 425.773 280.562 426.277 280.078C426.785 279.594 427.462 279.352 428.31 279.352C429.103 279.352 429.73 279.561 430.191 279.978C430.652 280.393 430.882 280.945 430.882 281.637C430.882 282.477 430.347 283.477 429.277 284.637L426.992 287.115H431.275V288ZM436.677 279.463V280.383H436.478C435.634 280.398 434.962 280.648 434.462 281.133C433.962 281.617 433.673 282.299 433.595 283.178C434.044 282.662 434.658 282.404 435.435 282.404C436.177 282.404 436.769 282.666 437.21 283.189C437.656 283.713 437.878 284.389 437.878 285.217C437.878 286.096 437.638 286.799 437.158 287.326C436.681 287.853 436.04 288.117 435.236 288.117C434.419 288.117 433.757 287.805 433.249 287.18C432.742 286.551 432.488 285.742 432.488 284.754V284.338C432.488 282.768 432.822 281.568 433.49 280.74C434.162 279.908 435.16 279.482 436.484 279.463H436.677ZM435.253 283.307C434.882 283.307 434.54 283.418 434.228 283.641C433.915 283.863 433.699 284.143 433.578 284.478V284.877C433.578 285.58 433.736 286.146 434.052 286.576C434.369 287.006 434.763 287.221 435.236 287.221C435.724 287.221 436.107 287.041 436.384 286.682C436.665 286.322 436.806 285.852 436.806 285.27C436.806 284.684 436.664 284.211 436.378 283.852C436.097 283.488 435.722 283.307 435.253 283.307Z" fill="#172755"/>
<rect x="466" y="258" width="66" height="52" fill="white"/>
<path d="M497.275 288H491.685V287.221L494.638 283.939C495.076 283.443 495.376 283.041 495.54 282.732C495.708 282.42 495.792 282.098 495.792 281.766C495.792 281.32 495.658 280.955 495.388 280.67C495.119 280.385 494.759 280.242 494.31 280.242C493.771 280.242 493.351 280.396 493.05 280.705C492.753 281.01 492.605 281.436 492.605 281.982H491.521C491.521 281.197 491.773 280.562 492.277 280.078C492.785 279.594 493.462 279.352 494.31 279.352C495.103 279.352 495.73 279.561 496.191 279.978C496.652 280.393 496.882 280.945 496.882 281.637C496.882 282.477 496.347 283.477 495.277 284.637L492.992 287.115H497.275V288ZM503.931 280.078L500.398 288H499.261L502.783 280.359H498.165V279.469H503.931V280.078Z" fill="#172755"/>
<rect x="70" y="310" width="66" height="52" fill="white"/>
<path d="M101.275 340H95.685V339.221L98.6381 335.939C99.0756 335.443 99.3764 335.041 99.5405 334.732C99.7084 334.42 99.7924 334.098 99.7924 333.766C99.7924 333.32 99.6576 332.955 99.3881 332.67C99.1186 332.385 98.7592 332.242 98.31 332.242C97.7709 332.242 97.351 332.396 97.0502 332.705C96.7533 333.01 96.6049 333.436 96.6049 333.982H95.5209C95.5209 333.197 95.7729 332.562 96.2768 332.078C96.7846 331.594 97.4623 331.352 98.31 331.352C99.103 331.352 99.7299 331.561 100.191 331.979C100.652 332.393 100.882 332.945 100.882 333.637C100.882 334.477 100.347 335.477 99.2768 336.637L96.9916 339.115H101.275V340ZM107.597 333.695C107.597 334.121 107.484 334.5 107.257 334.832C107.035 335.164 106.732 335.424 106.349 335.611C106.794 335.803 107.146 336.082 107.404 336.449C107.665 336.816 107.796 337.232 107.796 337.697C107.796 338.436 107.546 339.023 107.046 339.461C106.55 339.898 105.896 340.117 105.083 340.117C104.263 340.117 103.605 339.898 103.109 339.461C102.617 339.02 102.371 338.432 102.371 337.697C102.371 337.236 102.496 336.82 102.746 336.449C102.999 336.078 103.349 335.797 103.794 335.605C103.415 335.418 103.117 335.158 102.898 334.826C102.679 334.494 102.57 334.117 102.57 333.695C102.57 332.977 102.8 332.406 103.261 331.984C103.722 331.562 104.33 331.352 105.083 331.352C105.833 331.352 106.439 331.562 106.9 331.984C107.365 332.406 107.597 332.977 107.597 333.695ZM106.712 337.674C106.712 337.197 106.56 336.809 106.255 336.508C105.955 336.207 105.56 336.057 105.072 336.057C104.583 336.057 104.191 336.205 103.894 336.502C103.601 336.799 103.455 337.189 103.455 337.674C103.455 338.158 103.597 338.539 103.882 338.816C104.171 339.094 104.572 339.232 105.083 339.232C105.591 339.232 105.99 339.094 106.279 338.816C106.568 338.535 106.712 338.154 106.712 337.674ZM105.083 332.242C104.658 332.242 104.312 332.375 104.046 332.641C103.785 332.902 103.654 333.26 103.654 333.713C103.654 334.146 103.783 334.498 104.04 334.768C104.302 335.033 104.65 335.166 105.083 335.166C105.517 335.166 105.863 335.033 106.121 334.768C106.382 334.498 106.513 334.146 106.513 333.713C106.513 333.279 106.378 332.926 106.109 332.652C105.839 332.379 105.497 332.242 105.083 332.242Z" fill="#172755"/>
<rect x="136" y="310" width="66" height="52" fill="white"/>
<path d="M167.275 340H161.685V339.221L164.638 335.939C165.076 335.443 165.376 335.041 165.54 334.732C165.708 334.42 165.792 334.098 165.792 333.766C165.792 333.32 165.658 332.955 165.388 332.67C165.119 332.385 164.759 332.242 164.31 332.242C163.771 332.242 163.351 332.396 163.05 332.705C162.753 333.01 162.605 333.436 162.605 333.982H161.521C161.521 333.197 161.773 332.562 162.277 332.078C162.785 331.594 163.462 331.352 164.31 331.352C165.103 331.352 165.73 331.561 166.191 331.979C166.652 332.393 166.882 332.945 166.882 333.637C166.882 334.477 166.347 335.477 165.277 336.637L162.992 339.115H167.275V340ZM172.578 336.25C172.351 336.52 172.08 336.736 171.763 336.9C171.451 337.064 171.107 337.146 170.732 337.146C170.24 337.146 169.81 337.025 169.443 336.783C169.08 336.541 168.798 336.201 168.599 335.764C168.4 335.322 168.3 334.836 168.3 334.305C168.3 333.734 168.408 333.221 168.622 332.764C168.841 332.307 169.15 331.957 169.548 331.715C169.947 331.473 170.412 331.352 170.943 331.352C171.787 331.352 172.451 331.668 172.935 332.301C173.423 332.93 173.667 333.789 173.667 334.879V335.195C173.667 336.855 173.339 338.068 172.683 338.834C172.027 339.596 171.037 339.986 169.712 340.006H169.501V339.092H169.73C170.624 339.076 171.312 338.844 171.792 338.395C172.273 337.941 172.535 337.227 172.578 336.25ZM170.908 336.25C171.271 336.25 171.605 336.139 171.91 335.916C172.218 335.693 172.443 335.418 172.583 335.09V334.656C172.583 333.945 172.429 333.367 172.121 332.922C171.812 332.477 171.421 332.254 170.949 332.254C170.472 332.254 170.089 332.438 169.8 332.805C169.511 333.168 169.367 333.648 169.367 334.246C169.367 334.828 169.505 335.309 169.783 335.688C170.064 336.062 170.439 336.25 170.908 336.25Z" fill="#172755"/>
<rect x="202" y="310" width="66" height="52" fill="white"/>
<path d="M229.261 335.207H230.076C230.587 335.199 230.99 335.064 231.283 334.803C231.576 334.541 231.722 334.188 231.722 333.742C231.722 332.742 231.224 332.242 230.228 332.242C229.759 332.242 229.384 332.377 229.103 332.646C228.826 332.912 228.687 333.266 228.687 333.707H227.603C227.603 333.031 227.849 332.471 228.341 332.025C228.837 331.576 229.466 331.352 230.228 331.352C231.033 331.352 231.664 331.564 232.121 331.99C232.578 332.416 232.806 333.008 232.806 333.766C232.806 334.137 232.685 334.496 232.443 334.844C232.205 335.191 231.878 335.451 231.464 335.623C231.933 335.771 232.294 336.018 232.548 336.361C232.806 336.705 232.935 337.125 232.935 337.621C232.935 338.387 232.685 338.994 232.185 339.443C231.685 339.893 231.035 340.117 230.234 340.117C229.433 340.117 228.781 339.9 228.277 339.467C227.777 339.033 227.527 338.461 227.527 337.75H228.617C228.617 338.199 228.763 338.559 229.056 338.828C229.349 339.098 229.742 339.232 230.234 339.232C230.757 339.232 231.158 339.096 231.435 338.822C231.712 338.549 231.851 338.156 231.851 337.645C231.851 337.148 231.699 336.768 231.394 336.502C231.089 336.236 230.65 336.1 230.076 336.092H229.261V335.207ZM239.773 336.361C239.773 337.631 239.556 338.574 239.122 339.191C238.689 339.809 238.011 340.117 237.089 340.117C236.179 340.117 235.505 339.816 235.068 339.215C234.63 338.609 234.404 337.707 234.388 336.508V335.061C234.388 333.807 234.605 332.875 235.039 332.266C235.472 331.656 236.152 331.352 237.078 331.352C237.996 331.352 238.671 331.646 239.105 332.236C239.539 332.822 239.761 333.729 239.773 334.955V336.361ZM238.689 334.879C238.689 333.961 238.56 333.293 238.302 332.875C238.044 332.453 237.636 332.242 237.078 332.242C236.523 332.242 236.119 332.451 235.865 332.869C235.611 333.287 235.48 333.93 235.472 334.797V336.531C235.472 337.453 235.605 338.135 235.871 338.576C236.14 339.014 236.546 339.232 237.089 339.232C237.624 339.232 238.021 339.025 238.279 338.611C238.54 338.197 238.677 337.545 238.689 336.654V334.879Z" fill="#172755"/>
<rect x="268" y="310" width="66" height="52" fill="white"/>
<path d="M295.261 335.207H296.076C296.587 335.199 296.99 335.064 297.283 334.803C297.576 334.541 297.722 334.188 297.722 333.742C297.722 332.742 297.224 332.242 296.228 332.242C295.759 332.242 295.384 332.377 295.103 332.646C294.826 332.912 294.687 333.266 294.687 333.707H293.603C293.603 333.031 293.849 332.471 294.341 332.025C294.837 331.576 295.466 331.352 296.228 331.352C297.033 331.352 297.664 331.564 298.121 331.99C298.578 332.416 298.806 333.008 298.806 333.766C298.806 334.137 298.685 334.496 298.443 334.844C298.205 335.191 297.878 335.451 297.464 335.623C297.933 335.771 298.294 336.018 298.548 336.361C298.806 336.705 298.935 337.125 298.935 337.621C298.935 338.387 298.685 338.994 298.185 339.443C297.685 339.893 297.035 340.117 296.234 340.117C295.433 340.117 294.781 339.9 294.277 339.467C293.777 339.033 293.527 338.461 293.527 337.75H294.617C294.617 338.199 294.763 338.559 295.056 338.828C295.349 339.098 295.742 339.232 296.234 339.232C296.757 339.232 297.158 339.096 297.435 338.822C297.712 338.549 297.851 338.156 297.851 337.645C297.851 337.148 297.699 336.768 297.394 336.502C297.089 336.236 296.65 336.1 296.076 336.092H295.261V335.207ZM303.986 340H302.896V332.775L300.71 333.578V332.594L303.816 331.428H303.986V340Z" fill="#172755"/>
<rect x="334" y="310" width="66" height="52" fill="white"/>
<rect x="400" y="310" width="66" height="52" fill="white"/>
<rect x="466" y="310" width="66" height="52" fill="white"/>
<path d="M89.8027 61.4688L92.5918 68.4297L95.3809 61.4688H96.8398V70H95.7148V66.6777L95.8203 63.0918L93.0195 70H92.1582L89.3633 63.1094L89.4746 66.6777V70H88.3496V61.4688H89.8027ZM105.389 66.0098C105.389 66.8457 105.248 67.5762 104.967 68.2012C104.686 68.8223 104.287 69.2969 103.771 69.625C103.256 69.9531 102.654 70.1172 101.967 70.1172C101.295 70.1172 100.699 69.9531 100.18 69.625C99.6602 69.293 99.2559 68.8223 98.9668 68.2129C98.6816 67.5996 98.5352 66.8906 98.5273 66.0859V65.4707C98.5273 64.6504 98.6699 63.9258 98.9551 63.2969C99.2402 62.668 99.6426 62.1875 100.162 61.8555C100.686 61.5195 101.283 61.3516 101.955 61.3516C102.639 61.3516 103.24 61.5176 103.76 61.8496C104.283 62.1777 104.686 62.6562 104.967 63.2852C105.248 63.9102 105.389 64.6387 105.389 65.4707V66.0098ZM104.27 65.459C104.27 64.4473 104.066 63.6719 103.66 63.1328C103.254 62.5898 102.686 62.3184 101.955 62.3184C101.244 62.3184 100.684 62.5898 100.273 63.1328C99.8672 63.6719 99.6582 64.4219 99.6465 65.3828V66.0098C99.6465 66.9902 99.8516 67.7617 100.262 68.3242C100.676 68.8828 101.244 69.1621 101.967 69.1621C102.693 69.1621 103.256 68.8984 103.654 68.3711C104.053 67.8398 104.258 67.0801 104.27 66.0918V65.459ZM113.633 70H112.502L108.207 63.4258V70H107.076V61.4688H108.207L112.514 68.0723V61.4688H113.633V70Z" fill="#8794BA"/>
<path d="M163.004 62.3945H160.262V70H159.143V62.3945H156.406V61.4688H163.004V62.3945ZM170.275 61.4688V67.2695C170.271 68.0742 170.018 68.7324 169.514 69.2441C169.014 69.7559 168.334 70.043 167.475 70.1055L167.176 70.1172C166.242 70.1172 165.498 69.8652 164.943 69.3613C164.389 68.8574 164.107 68.1641 164.1 67.2812V61.4688H165.213V67.2461C165.213 67.8633 165.383 68.3438 165.723 68.6875C166.062 69.0273 166.547 69.1973 167.176 69.1973C167.812 69.1973 168.299 69.0273 168.635 68.6875C168.975 68.3477 169.145 67.8691 169.145 67.252V61.4688H170.275ZM176.873 66.0566H173.176V69.0801H177.471V70H172.051V61.4688H177.412V62.3945H173.176V65.1367H176.873V66.0566Z" fill="#8794BA"/>
<path d="M223.156 67.3105L223.32 68.4355L223.561 67.4219L225.248 61.4688H226.197L227.844 67.4219L228.078 68.4531L228.26 67.3047L229.584 61.4688H230.715L228.646 70H227.621L225.863 63.7832L225.729 63.1328L225.594 63.7832L223.771 70H222.746L220.684 61.4688H221.809L223.156 67.3105ZM236.791 66.0566H233.094V69.0801H237.389V70H231.969V61.4688H237.33V62.3945H233.094V65.1367H236.791V66.0566ZM238.789 70V61.4688H241.197C241.939 61.4688 242.596 61.6328 243.166 61.9609C243.736 62.2891 244.176 62.7559 244.484 63.3613C244.797 63.9668 244.955 64.6621 244.959 65.4473V65.9922C244.959 66.7969 244.803 67.502 244.49 68.1074C244.182 68.7129 243.738 69.1777 243.16 69.502C242.586 69.8262 241.916 69.9922 241.15 70H238.789ZM239.914 62.3945V69.0801H241.098C241.965 69.0801 242.639 68.8105 243.119 68.2715C243.604 67.7324 243.846 66.9648 243.846 65.9688V65.4707C243.846 64.502 243.617 63.75 243.16 63.2148C242.707 62.6758 242.062 62.4023 241.227 62.3945H239.914Z" fill="#8794BA"/>
<path d="M294.137 62.3945H291.395V70H290.275V62.3945H287.539V61.4688H294.137V62.3945ZM301.959 70H300.828V66.0566H296.527V70H295.402V61.4688H296.527V65.1367H300.828V61.4688H301.959V70ZM309.963 61.4688V67.2695C309.959 68.0742 309.705 68.7324 309.201 69.2441C308.701 69.7559 308.021 70.043 307.162 70.1055L306.863 70.1172C305.93 70.1172 305.186 69.8652 304.631 69.3613C304.076 68.8574 303.795 68.1641 303.787 67.2812V61.4688H304.9V67.2461C304.9 67.8633 305.07 68.3438 305.41 68.6875C305.75 69.0273 306.234 69.1973 306.863 69.1973C307.5 69.1973 307.986 69.0273 308.322 68.6875C308.662 68.3477 308.832 67.8691 308.832 67.252V61.4688H309.963Z" fill="#8794BA"/>
<path d="M362.047 66.2324H358.467V70H357.342V61.4688H362.627V62.3945H358.467V65.3125H362.047V66.2324ZM367.104 66.5488H365.1V70H363.969V61.4688H366.793C367.754 61.4688 368.492 61.6875 369.008 62.125C369.527 62.5625 369.787 63.1992 369.787 64.0352C369.787 64.5664 369.643 65.0293 369.354 65.4238C369.068 65.8184 368.67 66.1133 368.158 66.3086L370.162 69.9297V70H368.955L367.104 66.5488ZM365.1 65.6289H366.828C367.387 65.6289 367.83 65.4844 368.158 65.1953C368.49 64.9062 368.656 64.5195 368.656 64.0352C368.656 63.5078 368.498 63.1035 368.182 62.8223C367.869 62.541 367.416 62.3984 366.822 62.3945H365.1V65.6289ZM372.576 70H371.451V61.4688H372.576V70Z" fill="#8794BA"/>
<path d="M423.828 66.1973C422.863 65.9199 422.16 65.5801 421.719 65.1777C421.281 64.7715 421.062 64.2715 421.062 63.6777C421.062 63.0059 421.33 62.4512 421.865 62.0137C422.404 61.5723 423.104 61.3516 423.963 61.3516C424.549 61.3516 425.07 61.4648 425.527 61.6914C425.988 61.918 426.344 62.2305 426.594 62.6289C426.848 63.0273 426.975 63.4629 426.975 63.9355H425.844C425.844 63.4199 425.68 63.0156 425.352 62.7227C425.023 62.4258 424.561 62.2773 423.963 62.2773C423.408 62.2773 422.975 62.4004 422.662 62.6465C422.354 62.8887 422.199 63.2266 422.199 63.6602C422.199 64.0078 422.346 64.3027 422.639 64.5449C422.936 64.7832 423.438 65.002 424.145 65.2012C424.855 65.4004 425.41 65.6211 425.809 65.8633C426.211 66.1016 426.508 66.3809 426.699 66.7012C426.895 67.0215 426.992 67.3984 426.992 67.832C426.992 68.5234 426.723 69.0781 426.184 69.4961C425.645 69.9102 424.924 70.1172 424.021 70.1172C423.436 70.1172 422.889 70.0059 422.381 69.7832C421.873 69.5566 421.48 69.248 421.203 68.8574C420.93 68.4668 420.793 68.0234 420.793 67.5273H421.924C421.924 68.043 422.113 68.4512 422.492 68.752C422.875 69.0488 423.385 69.1973 424.021 69.1973C424.615 69.1973 425.07 69.0762 425.387 68.834C425.703 68.5918 425.861 68.2617 425.861 67.8438C425.861 67.4258 425.715 67.1035 425.422 66.877C425.129 66.6465 424.598 66.4199 423.828 66.1973ZM433.15 67.7734H429.576L428.773 70H427.613L430.871 61.4688H431.855L435.119 70H433.965L433.15 67.7734ZM429.916 66.8477H432.816L431.363 62.8574L429.916 66.8477ZM441.4 62.3945H438.658V70H437.539V62.3945H434.803V61.4688H441.4V62.3945Z" fill="#8794BA"/>
<path d="M488.773 66.1973C487.809 65.9199 487.105 65.5801 486.664 65.1777C486.227 64.7715 486.008 64.2715 486.008 63.6777C486.008 63.0059 486.275 62.4512 486.811 62.0137C487.35 61.5723 488.049 61.3516 488.908 61.3516C489.494 61.3516 490.016 61.4648 490.473 61.6914C490.934 61.918 491.289 62.2305 491.539 62.6289C491.793 63.0273 491.92 63.4629 491.92 63.9355H490.789C490.789 63.4199 490.625 63.0156 490.297 62.7227C489.969 62.4258 489.506 62.2773 488.908 62.2773C488.354 62.2773 487.92 62.4004 487.607 62.6465C487.299 62.8887 487.145 63.2266 487.145 63.6602C487.145 64.0078 487.291 64.3027 487.584 64.5449C487.881 64.7832 488.383 65.002 489.09 65.2012C489.801 65.4004 490.355 65.6211 490.754 65.8633C491.156 66.1016 491.453 66.3809 491.645 66.7012C491.84 67.0215 491.938 67.3984 491.938 67.832C491.938 68.5234 491.668 69.0781 491.129 69.4961C490.59 69.9102 489.869 70.1172 488.967 70.1172C488.381 70.1172 487.834 70.0059 487.326 69.7832C486.818 69.5566 486.426 69.248 486.148 68.8574C485.875 68.4668 485.738 68.0234 485.738 67.5273H486.869C486.869 68.043 487.059 68.4512 487.438 68.752C487.82 69.0488 488.33 69.1973 488.967 69.1973C489.561 69.1973 490.016 69.0762 490.332 68.834C490.648 68.5918 490.807 68.2617 490.807 67.8438C490.807 67.4258 490.66 67.1035 490.367 66.877C490.074 66.6465 489.543 66.4199 488.773 66.1973ZM499.391 61.4688V67.2695C499.387 68.0742 499.133 68.7324 498.629 69.2441C498.129 69.7559 497.449 70.043 496.59 70.1055L496.291 70.1172C495.357 70.1172 494.613 69.8652 494.059 69.3613C493.504 68.8574 493.223 68.1641 493.215 67.2812V61.4688H494.328V67.2461C494.328 67.8633 494.498 68.3438 494.838 68.6875C495.178 69.0273 495.662 69.1973 496.291 69.1973C496.928 69.1973 497.414 69.0273 497.75 68.6875C498.09 68.3477 498.26 67.8691 498.26 67.252V61.4688H499.391ZM507.723 70H506.592L502.297 63.4258V70H501.166V61.4688H502.297L506.604 68.0723V61.4688H507.723V70Z" fill="#8794BA"/>
</svg>
