<svg width="600" height="410" viewBox="0 0 600 410" fill="none" xmlns="http://www.w3.org/2000/svg">
<rect width="600" height="410" fill="white"/>
<rect x="99" y="72" width="1" height="271" fill="#EEEEF7"/>
<rect x="162" y="72" width="1" height="271" fill="#EEEEF7"/>
<rect x="225" y="72" width="1" height="271" fill="#EEEEF7"/>
<rect x="288" y="72" width="1" height="271" fill="#EEEEF7"/>
<rect x="351" y="72" width="1" height="271" fill="#EEEEF7"/>
<rect x="414" y="72" width="1" height="271" fill="#EEEEF7"/>
<rect x="477" y="72" width="1" height="271" fill="#EEEEF7"/>
<rect x="540" y="72" width="1" height="271" fill="#EEEEF7"/>
<path d="M58.9375 92.7227L59.3711 88.4688H63.7422V89.4707H60.291L60.0332 91.7969C60.4512 91.5508 60.9258 91.4277 61.457 91.4277C62.2344 91.4277 62.8516 91.6855 63.3086 92.2012C63.7656 92.7129 63.9941 93.4062 63.9941 94.2812C63.9941 95.1602 63.7559 95.8535 63.2793 96.3613C62.8066 96.8652 62.1445 97.1172 61.293 97.1172C60.5391 97.1172 59.9238 96.9082 59.4473 96.4902C58.9707 96.0723 58.6992 95.4941 58.6328 94.7559H59.6582C59.7246 95.2441 59.8984 95.6133 60.1797 95.8633C60.4609 96.1094 60.832 96.2324 61.293 96.2324C61.7969 96.2324 62.1914 96.0605 62.4766 95.7168C62.7656 95.373 62.9102 94.8984 62.9102 94.293C62.9102 93.7227 62.7539 93.2656 62.4414 92.9219C62.1328 92.5742 61.7207 92.4004 61.2051 92.4004C60.7324 92.4004 60.3613 92.5039 60.0918 92.7109L59.8047 92.9453L58.9375 92.7227ZM69.7539 94.1348H70.9375V95.0195H69.7539V97H68.6641V95.0195H64.7793V94.3809L68.5996 88.4688H69.7539V94.1348ZM66.0098 94.1348H68.6641V89.9512L68.5352 90.1855L66.0098 94.1348ZM74.2832 93.8184H71.4238V92.9336H74.2832V93.8184ZM79.4863 88.4629V89.3828H79.2871C78.4434 89.3984 77.7715 89.6484 77.2715 90.1328C76.7715 90.6172 76.4824 91.2988 76.4043 92.1777C76.8535 91.6621 77.4668 91.4043 78.2441 91.4043C78.9863 91.4043 79.5781 91.666 80.0195 92.1895C80.4648 92.7129 80.6875 93.3887 80.6875 94.2168C80.6875 95.0957 80.4473 95.7988 79.9668 96.3262C79.4902 96.8535 78.8496 97.1172 78.0449 97.1172C77.2285 97.1172 76.5664 96.8047 76.0586 96.1797C75.5508 95.5508 75.2969 94.7422 75.2969 93.7539V93.3379C75.2969 91.7676 75.6309 90.5684 76.2988 89.7402C76.9707 88.9082 77.9688 88.4824 79.293 88.4629H79.4863ZM78.0625 92.3066C77.6914 92.3066 77.3496 92.418 77.0371 92.6406C76.7246 92.8633 76.5078 93.1426 76.3867 93.4785V93.877C76.3867 94.5801 76.5449 95.1465 76.8613 95.5762C77.1777 96.0059 77.5723 96.2207 78.0449 96.2207C78.5332 96.2207 78.916 96.041 79.1934 95.6816C79.4746 95.3223 79.6152 94.8516 79.6152 94.2695C79.6152 93.6836 79.4727 93.2109 79.1875 92.8516C78.9062 92.4883 78.5312 92.3066 78.0625 92.3066ZM82.4688 92.7227L82.9023 88.4688H87.2734V89.4707H83.8223L83.5645 91.7969C83.9824 91.5508 84.457 91.4277 84.9883 91.4277C85.7656 91.4277 86.3828 91.6855 86.8398 92.2012C87.2969 92.7129 87.5254 93.4062 87.5254 94.2812C87.5254 95.1602 87.2871 95.8535 86.8105 96.3613C86.3379 96.8652 85.6758 97.1172 84.8242 97.1172C84.0703 97.1172 83.4551 96.9082 82.9785 96.4902C82.502 96.0723 82.2305 95.4941 82.1641 94.7559H83.1895C83.2559 95.2441 83.4297 95.6133 83.7109 95.8633C83.9922 96.1094 84.3633 96.2324 84.8242 96.2324C85.3281 96.2324 85.7227 96.0605 86.0078 95.7168C86.2969 95.373 86.4414 94.8984 86.4414 94.293C86.4414 93.7227 86.2852 93.2656 85.9727 92.9219C85.6641 92.5742 85.252 92.4004 84.7363 92.4004C84.2637 92.4004 83.8926 92.5039 83.623 92.7109L83.3359 92.9453L82.4688 92.7227Z" fill="#8794BA"/>
<path d="M63.0156 150.135H64.1992V151.02H63.0156V153H61.9258V151.02H58.041V150.381L61.8613 144.469H63.0156V150.135ZM59.2715 150.135H61.9258V145.951L61.7969 146.186L59.2715 150.135ZM65.6758 148.723L66.1094 144.469H70.4805V145.471H67.0293L66.7715 147.797C67.1895 147.551 67.6641 147.428 68.1953 147.428C68.9727 147.428 69.5898 147.686 70.0469 148.201C70.5039 148.713 70.7324 149.406 70.7324 150.281C70.7324 151.16 70.4941 151.854 70.0176 152.361C69.5449 152.865 68.8828 153.117 68.0312 153.117C67.2773 153.117 66.6621 152.908 66.1855 152.49C65.709 152.072 65.4375 151.494 65.3711 150.756H66.3965C66.4629 151.244 66.6367 151.613 66.918 151.863C67.1992 152.109 67.5703 152.232 68.0312 152.232C68.5352 152.232 68.9297 152.061 69.2148 151.717C69.5039 151.373 69.6484 150.898 69.6484 150.293C69.6484 149.723 69.4922 149.266 69.1797 148.922C68.8711 148.574 68.459 148.4 67.9434 148.4C67.4707 148.4 67.0996 148.504 66.8301 148.711L66.543 148.945L65.6758 148.723ZM74.2832 149.818H71.4238V148.934H74.2832V149.818ZM75.7305 148.723L76.1641 144.469H80.5352V145.471H77.084L76.8262 147.797C77.2441 147.551 77.7188 147.428 78.25 147.428C79.0273 147.428 79.6445 147.686 80.1016 148.201C80.5586 148.713 80.7871 149.406 80.7871 150.281C80.7871 151.16 80.5488 151.854 80.0723 152.361C79.5996 152.865 78.9375 153.117 78.0859 153.117C77.332 153.117 76.7168 152.908 76.2402 152.49C75.7637 152.072 75.4922 151.494 75.4258 150.756H76.4512C76.5176 151.244 76.6914 151.613 76.9727 151.863C77.2539 152.109 77.625 152.232 78.0859 152.232C78.5898 152.232 78.9844 152.061 79.2695 151.717C79.5586 151.373 79.7031 150.898 79.7031 150.293C79.7031 149.723 79.5469 149.266 79.2344 148.922C78.9258 148.574 78.5137 148.4 77.998 148.4C77.5254 148.4 77.1543 148.504 76.8848 148.711L76.5977 148.945L75.7305 148.723ZM86.5469 150.135H87.7305V151.02H86.5469V153H85.457V151.02H81.5723V150.381L85.3926 144.469H86.5469V150.135ZM82.8027 150.135H85.457V145.951L85.3281 146.186L82.8027 150.135Z" fill="#8794BA"/>
<path d="M60.0156 204.207H60.8301C61.3418 204.199 61.7441 204.064 62.0371 203.803C62.3301 203.541 62.4766 203.188 62.4766 202.742C62.4766 201.742 61.9785 201.242 60.9824 201.242C60.5137 201.242 60.1387 201.377 59.8574 201.646C59.5801 201.912 59.4414 202.266 59.4414 202.707H58.3574C58.3574 202.031 58.6035 201.471 59.0957 201.025C59.5918 200.576 60.2207 200.352 60.9824 200.352C61.7871 200.352 62.418 200.564 62.875 200.99C63.332 201.416 63.5605 202.008 63.5605 202.766C63.5605 203.137 63.4395 203.496 63.1973 203.844C62.959 204.191 62.6328 204.451 62.2188 204.623C62.6875 204.771 63.0488 205.018 63.3027 205.361C63.5605 205.705 63.6895 206.125 63.6895 206.621C63.6895 207.387 63.4395 207.994 62.9395 208.443C62.4395 208.893 61.7891 209.117 60.9883 209.117C60.1875 209.117 59.5352 208.9 59.0312 208.467C58.5312 208.033 58.2812 207.461 58.2812 206.75H59.3711C59.3711 207.199 59.5176 207.559 59.8105 207.828C60.1035 208.098 60.4961 208.232 60.9883 208.232C61.5117 208.232 61.9121 208.096 62.1895 207.822C62.4668 207.549 62.6055 207.156 62.6055 206.645C62.6055 206.148 62.4531 205.768 62.1484 205.502C61.8438 205.236 61.4043 205.1 60.8301 205.092H60.0156V204.207ZM65.6758 204.723L66.1094 200.469H70.4805V201.471H67.0293L66.7715 203.797C67.1895 203.551 67.6641 203.428 68.1953 203.428C68.9727 203.428 69.5898 203.686 70.0469 204.201C70.5039 204.713 70.7324 205.406 70.7324 206.281C70.7324 207.16 70.4941 207.854 70.0176 208.361C69.5449 208.865 68.8828 209.117 68.0312 209.117C67.2773 209.117 66.6621 208.908 66.1855 208.49C65.709 208.072 65.4375 207.494 65.3711 206.756H66.3965C66.4629 207.244 66.6367 207.613 66.918 207.863C67.1992 208.109 67.5703 208.232 68.0312 208.232C68.5352 208.232 68.9297 208.061 69.2148 207.717C69.5039 207.373 69.6484 206.898 69.6484 206.293C69.6484 205.723 69.4922 205.266 69.1797 204.922C68.8711 204.574 68.459 204.4 67.9434 204.4C67.4707 204.4 67.0996 204.504 66.8301 204.711L66.543 204.945L65.6758 204.723ZM74.2832 205.818H71.4238V204.934H74.2832V205.818ZM79.8086 206.135H80.9922V207.02H79.8086V209H78.7188V207.02H74.834V206.381L78.6543 200.469H79.8086V206.135ZM76.0645 206.135H78.7188V201.951L78.5898 202.186L76.0645 206.135ZM86.5469 206.135H87.7305V207.02H86.5469V209H85.457V207.02H81.5723V206.381L85.3926 200.469H86.5469V206.135ZM82.8027 206.135H85.457V201.951L85.3281 202.186L82.8027 206.135Z" fill="#8794BA"/>
<path d="M64.0293 265H58.4395V264.221L61.3926 260.939C61.8301 260.443 62.1309 260.041 62.2949 259.732C62.4629 259.42 62.5469 259.098 62.5469 258.766C62.5469 258.32 62.4121 257.955 62.1426 257.67C61.873 257.385 61.5137 257.242 61.0645 257.242C60.5254 257.242 60.1055 257.396 59.8047 257.705C59.5078 258.01 59.3594 258.436 59.3594 258.982H58.2754C58.2754 258.197 58.5273 257.562 59.0312 257.078C59.5391 256.594 60.2168 256.352 61.0645 256.352C61.8574 256.352 62.4844 256.561 62.9453 256.979C63.4062 257.393 63.6367 257.945 63.6367 258.637C63.6367 259.477 63.1016 260.477 62.0312 261.637L59.7461 264.115H64.0293V265ZM65.6758 260.723L66.1094 256.469H70.4805V257.471H67.0293L66.7715 259.797C67.1895 259.551 67.6641 259.428 68.1953 259.428C68.9727 259.428 69.5898 259.686 70.0469 260.201C70.5039 260.713 70.7324 261.406 70.7324 262.281C70.7324 263.16 70.4941 263.854 70.0176 264.361C69.5449 264.865 68.8828 265.117 68.0312 265.117C67.2773 265.117 66.6621 264.908 66.1855 264.49C65.709 264.072 65.4375 263.494 65.3711 262.756H66.3965C66.4629 263.244 66.6367 263.613 66.918 263.863C67.1992 264.109 67.5703 264.232 68.0312 264.232C68.5352 264.232 68.9297 264.061 69.2148 263.717C69.5039 263.373 69.6484 262.898 69.6484 262.293C69.6484 261.723 69.4922 261.266 69.1797 260.922C68.8711 260.574 68.459 260.4 67.9434 260.4C67.4707 260.4 67.0996 260.504 66.8301 260.711L66.543 260.945L65.6758 260.723ZM74.2832 261.818H71.4238V260.934H74.2832V261.818ZM76.8086 260.207H77.623C78.1348 260.199 78.5371 260.064 78.8301 259.803C79.123 259.541 79.2695 259.188 79.2695 258.742C79.2695 257.742 78.7715 257.242 77.7754 257.242C77.3066 257.242 76.9316 257.377 76.6504 257.646C76.373 257.912 76.2344 258.266 76.2344 258.707H75.1504C75.1504 258.031 75.3965 257.471 75.8887 257.025C76.3848 256.576 77.0137 256.352 77.7754 256.352C78.5801 256.352 79.2109 256.564 79.668 256.99C80.125 257.416 80.3535 258.008 80.3535 258.766C80.3535 259.137 80.2324 259.496 79.9902 259.844C79.752 260.191 79.4258 260.451 79.0117 260.623C79.4805 260.771 79.8418 261.018 80.0957 261.361C80.3535 261.705 80.4824 262.125 80.4824 262.621C80.4824 263.387 80.2324 263.994 79.7324 264.443C79.2324 264.893 78.582 265.117 77.7812 265.117C76.9805 265.117 76.3281 264.9 75.8242 264.467C75.3242 264.033 75.0742 263.461 75.0742 262.75H76.1641C76.1641 263.199 76.3105 263.559 76.6035 263.828C76.8965 264.098 77.2891 264.232 77.7812 264.232C78.3047 264.232 78.7051 264.096 78.9824 263.822C79.2598 263.549 79.3984 263.156 79.3984 262.645C79.3984 262.148 79.2461 261.768 78.9414 261.502C78.6367 261.236 78.1973 261.1 77.623 261.092H76.8086V260.207ZM86.5469 262.135H87.7305V263.02H86.5469V265H85.457V263.02H81.5723V262.381L85.3926 256.469H86.5469V262.135ZM82.8027 262.135H85.457V257.951L85.3281 258.186L82.8027 262.135Z" fill="#8794BA"/>
<path d="M62.002 321H60.9121V313.775L58.7266 314.578V313.594L61.832 312.428H62.002V321ZM70.3516 314.695C70.3516 315.121 70.2383 315.5 70.0117 315.832C69.7891 316.164 69.4863 316.424 69.1035 316.611C69.5488 316.803 69.9004 317.082 70.1582 317.449C70.4199 317.816 70.5508 318.232 70.5508 318.697C70.5508 319.436 70.3008 320.023 69.8008 320.461C69.3047 320.898 68.6504 321.117 67.8379 321.117C67.0176 321.117 66.3594 320.898 65.8633 320.461C65.3711 320.02 65.125 319.432 65.125 318.697C65.125 318.236 65.25 317.82 65.5 317.449C65.7539 317.078 66.1035 316.797 66.5488 316.605C66.1699 316.418 65.8711 316.158 65.6523 315.826C65.4336 315.494 65.3242 315.117 65.3242 314.695C65.3242 313.977 65.5547 313.406 66.0156 312.984C66.4766 312.562 67.084 312.352 67.8379 312.352C68.5879 312.352 69.1934 312.562 69.6543 312.984C70.1191 313.406 70.3516 313.977 70.3516 314.695ZM69.4668 318.674C69.4668 318.197 69.3145 317.809 69.0098 317.508C68.709 317.207 68.3145 317.057 67.8262 317.057C67.3379 317.057 66.9453 317.205 66.6484 317.502C66.3555 317.799 66.209 318.189 66.209 318.674C66.209 319.158 66.3516 319.539 66.6367 319.816C66.9258 320.094 67.3262 320.232 67.8379 320.232C68.3457 320.232 68.7441 320.094 69.0332 319.816C69.3223 319.535 69.4668 319.154 69.4668 318.674ZM67.8379 313.242C67.4121 313.242 67.0664 313.375 66.8008 313.641C66.5391 313.902 66.4082 314.26 66.4082 314.713C66.4082 315.146 66.5371 315.498 66.7949 315.768C67.0566 316.033 67.4043 316.166 67.8379 316.166C68.2715 316.166 68.6172 316.033 68.875 315.768C69.1367 315.498 69.2676 315.146 69.2676 314.713C69.2676 314.279 69.1328 313.926 68.8633 313.652C68.5938 313.379 68.252 313.242 67.8379 313.242ZM74.2832 317.818H71.4238V316.934H74.2832V317.818ZM80.8223 321H75.2324V320.221L78.1855 316.939C78.623 316.443 78.9238 316.041 79.0879 315.732C79.2559 315.42 79.3398 315.098 79.3398 314.766C79.3398 314.32 79.2051 313.955 78.9355 313.67C78.666 313.385 78.3066 313.242 77.8574 313.242C77.3184 313.242 76.8984 313.396 76.5977 313.705C76.3008 314.01 76.1523 314.436 76.1523 314.982H75.0684C75.0684 314.197 75.3203 313.562 75.8242 313.078C76.332 312.594 77.0098 312.352 77.8574 312.352C78.6504 312.352 79.2773 312.561 79.7383 312.979C80.1992 313.393 80.4297 313.945 80.4297 314.637C80.4297 315.477 79.8945 316.477 78.8242 317.637L76.5391 320.115H80.8223V321ZM86.5469 318.135H87.7305V319.02H86.5469V321H85.457V319.02H81.5723V318.381L85.3926 312.469H86.5469V318.135ZM82.8027 318.135H85.457V313.951L85.3281 314.186L82.8027 318.135Z" fill="#8794BA"/>
<path d="M99 79H355.5C358.538 79 361 81.4624 361 84.5C361 87.5376 358.538 90 355.5 90H99V79Z" fill="#EF2A82"/>
<path d="M99 136H268.5C271.538 136 274 138.462 274 141.5C274 144.538 271.538 147 268.5 147H99V136Z" fill="#EF2A82"/>
<path d="M99 193H109.5C112.538 193 115 195.462 115 198.5C115 201.538 112.538 204 109.5 204H99V193Z" fill="#EF2A82"/>
<path d="M99 250H141.5C144.538 250 147 252.462 147 255.5C147 258.538 144.538 261 141.5 261H99V250Z" fill="#EF2A82"/>
<path d="M99 307H301.5C304.538 307 307 309.462 307 312.5C307 315.538 304.538 318 301.5 318H99V307Z" fill="#EF2A82"/>
<path d="M99 93H241.5C244.538 93 247 95.4624 247 98.5C247 101.538 244.538 104 241.5 104H99V93Z" fill="#0088F0"/>
<path d="M99 150H301.5C304.538 150 307 152.462 307 155.5C307 158.538 304.538 161 301.5 161H99V150Z" fill="#0088F0"/>
<path d="M99 207H141.5C144.538 207 147 209.462 147 212.5C147 215.538 144.538 218 141.5 218H99V207Z" fill="#0088F0"/>
<path d="M99 264H432.5C435.538 264 438 266.462 438 269.5C438 272.538 435.538 275 432.5 275H99V264Z" fill="#0088F0"/>
<path d="M99 321H489.5C492.538 321 495 323.462 495 326.5C495 329.538 492.538 332 489.5 332H99V321Z" fill="#0088F0"/>
</svg>
