<svg width="600" height="410" viewBox="0 0 600 410" fill="none" xmlns="http://www.w3.org/2000/svg">
<rect width="600" height="410" fill="white"/>
<path d="M328.985 140.077V265.922L220 328.845L111.015 265.922V140.077L220 77.1543L328.985 140.077Z" stroke="#EEEEF7" stroke-width="2"/>
<path d="M290.88 162.077V243.922L220 284.845L149.12 243.922V162.077L220 121.154L290.88 162.077Z" stroke="#EEEEF7" stroke-width="2"/>
<path d="M302.079 154.394L307.931 252.403L220.346 304.468L156.076 237.277L162.413 170.015L220.363 122.291L302.079 154.394Z" stroke="#0088F0" stroke-width="4"/>
<path d="M265.239 177.966L295.442 247H220.272L167.789 232.338L136.521 155.392L219.361 109.637L265.239 177.966Z" stroke="#EF2A82" stroke-width="4"/>
<path d="M244.114 189.077V216.922L220 230.845L195.886 216.922V189.077L220 175.154L244.114 189.077Z" stroke="#EEEEF7" stroke-width="2"/>
<path d="M460.508 136.252H463.184C464.866 136.226 466.188 135.783 467.15 134.923C468.113 134.063 468.594 132.902 468.594 131.439C468.594 128.153 466.958 126.51 463.685 126.51C462.145 126.51 460.913 126.953 459.989 127.838C459.077 128.711 458.622 129.873 458.622 131.323H455.06C455.06 129.103 455.869 127.261 457.486 125.798C459.116 124.322 461.182 123.584 463.685 123.584C466.329 123.584 468.402 124.283 469.903 125.682C471.405 127.081 472.156 129.026 472.156 131.516C472.156 132.735 471.758 133.916 470.962 135.058C470.179 136.2 469.108 137.054 467.747 137.619C469.287 138.106 470.475 138.915 471.309 140.044C472.156 141.174 472.58 142.554 472.58 144.184C472.58 146.699 471.758 148.695 470.115 150.171C468.472 151.647 466.335 152.385 463.704 152.385C461.073 152.385 458.93 151.673 457.274 150.248C455.631 148.823 454.81 146.943 454.81 144.607H458.391C458.391 146.083 458.872 147.264 459.835 148.15C460.797 149.035 462.087 149.478 463.704 149.478C465.424 149.478 466.74 149.029 467.651 148.13C468.562 147.232 469.018 145.942 469.018 144.261C469.018 142.631 468.517 141.379 467.516 140.506C466.515 139.634 465.071 139.184 463.184 139.159H460.508V136.252ZM492.506 142.586H496.395V145.493H492.506V152H488.925V145.493H476.16V143.394L488.713 123.969H492.506V142.586ZM480.203 142.586H488.925V128.84L488.501 129.61L480.203 142.586ZM499.302 129.359C499.302 127.678 499.834 126.292 500.9 125.201C501.978 124.11 503.357 123.564 505.039 123.564C506.746 123.564 508.126 124.116 509.178 125.22C510.243 126.311 510.776 127.729 510.776 129.475V130.842C510.776 132.536 510.237 133.922 509.159 135C508.093 136.066 506.733 136.598 505.077 136.598C503.409 136.598 502.029 136.066 500.938 135C499.847 133.922 499.302 132.491 499.302 130.707V129.359ZM501.958 130.842C501.958 131.843 502.241 132.671 502.806 133.325C503.37 133.967 504.128 134.288 505.077 134.288C505.989 134.288 506.72 133.973 507.272 133.345C507.837 132.716 508.119 131.856 508.119 130.765V129.359C508.119 128.358 507.843 127.53 507.291 126.876C506.739 126.221 505.989 125.894 505.039 125.894C504.089 125.894 503.338 126.221 502.786 126.876C502.234 127.53 501.958 128.384 501.958 129.436V130.842ZM512.951 145.127C512.951 143.446 513.484 142.066 514.549 140.988C515.628 139.897 517.007 139.351 518.689 139.351C520.37 139.351 521.75 139.89 522.828 140.968C523.906 142.047 524.445 143.478 524.445 145.262V146.629C524.445 148.31 523.906 149.696 522.828 150.787C521.763 151.865 520.396 152.404 518.727 152.404C517.059 152.404 515.679 151.872 514.588 150.806C513.497 149.728 512.951 148.297 512.951 146.513V145.127ZM515.608 146.629C515.608 147.643 515.891 148.477 516.455 149.131C517.02 149.773 517.777 150.094 518.727 150.094C519.651 150.094 520.389 149.78 520.941 149.151C521.493 148.509 521.769 147.643 521.769 146.552V145.127C521.769 144.113 521.487 143.285 520.922 142.643C520.37 142.002 519.626 141.681 518.689 141.681C517.777 141.681 517.033 142.002 516.455 142.643C515.891 143.272 515.608 144.126 515.608 145.204V146.629ZM505.886 149.882L503.864 148.612L517.553 126.703L519.574 127.973L505.886 149.882Z" fill="#EF2A82"/>
<path d="M453.8 178.157C453.8 177.226 453.981 176.388 454.345 175.644C454.714 174.899 455.224 174.325 455.874 173.921C456.53 173.517 457.277 173.314 458.115 173.314C459.41 173.314 460.456 173.763 461.253 174.659C462.056 175.556 462.457 176.748 462.457 178.236V178.351C462.457 179.276 462.278 180.108 461.921 180.847C461.569 181.579 461.062 182.15 460.4 182.561C459.744 182.971 458.988 183.176 458.133 183.176C456.844 183.176 455.798 182.728 454.995 181.831C454.198 180.935 453.8 179.748 453.8 178.271V178.157ZM455.435 178.351C455.435 179.405 455.678 180.252 456.164 180.891C456.656 181.529 457.312 181.849 458.133 181.849C458.959 181.849 459.615 181.526 460.102 180.882C460.588 180.231 460.831 179.323 460.831 178.157C460.831 177.114 460.582 176.271 460.084 175.626C459.592 174.976 458.936 174.65 458.115 174.65C457.312 174.65 456.665 174.97 456.173 175.608C455.681 176.247 455.435 177.161 455.435 178.351ZM472.529 178.351C472.529 179.798 472.198 180.964 471.536 181.849C470.874 182.733 469.978 183.176 468.847 183.176C467.692 183.176 466.784 182.81 466.122 182.077V186.656H464.496V173.49H465.981L466.061 174.545C466.723 173.725 467.643 173.314 468.82 173.314C469.963 173.314 470.865 173.745 471.527 174.606C472.195 175.468 472.529 176.666 472.529 178.201V178.351ZM470.903 178.166C470.903 177.094 470.675 176.247 470.218 175.626C469.761 175.005 469.134 174.694 468.337 174.694C467.353 174.694 466.614 175.131 466.122 176.004V180.548C466.608 181.415 467.353 181.849 468.354 181.849C469.134 181.849 469.752 181.541 470.209 180.926C470.672 180.305 470.903 179.385 470.903 178.166ZM476.81 171.188V173.49H478.585V174.747H476.81V180.645C476.81 181.025 476.889 181.312 477.047 181.506C477.205 181.693 477.475 181.787 477.855 181.787C478.043 181.787 478.301 181.752 478.629 181.682V183C478.201 183.117 477.785 183.176 477.381 183.176C476.654 183.176 476.106 182.956 475.737 182.517C475.368 182.077 475.184 181.453 475.184 180.645V174.747H473.452V173.49H475.184V171.188H476.81ZM482.259 183H480.633V173.49H482.259V183ZM480.501 170.968C480.501 170.704 480.58 170.481 480.738 170.3C480.902 170.118 481.143 170.027 481.459 170.027C481.775 170.027 482.016 170.118 482.18 170.3C482.344 170.481 482.426 170.704 482.426 170.968C482.426 171.231 482.344 171.451 482.18 171.627C482.016 171.803 481.775 171.891 481.459 171.891C481.143 171.891 480.902 171.803 480.738 171.627C480.58 171.451 480.501 171.231 480.501 170.968ZM484.438 178.157C484.438 177.226 484.62 176.388 484.983 175.644C485.353 174.899 485.862 174.325 486.513 173.921C487.169 173.517 487.916 173.314 488.754 173.314C490.049 173.314 491.095 173.763 491.892 174.659C492.694 175.556 493.096 176.748 493.096 178.236V178.351C493.096 179.276 492.917 180.108 492.56 180.847C492.208 181.579 491.701 182.15 491.039 182.561C490.383 182.971 489.627 183.176 488.771 183.176C487.482 183.176 486.437 182.728 485.634 181.831C484.837 180.935 484.438 179.748 484.438 178.271V178.157ZM486.073 178.351C486.073 179.405 486.316 180.252 486.803 180.891C487.295 181.529 487.951 181.849 488.771 181.849C489.598 181.849 490.254 181.526 490.74 180.882C491.227 180.231 491.47 179.323 491.47 178.157C491.47 177.114 491.221 176.271 490.723 175.626C490.23 174.976 489.574 174.65 488.754 174.65C487.951 174.65 487.304 174.97 486.812 175.608C486.319 176.247 486.073 177.161 486.073 178.351ZM496.673 173.49L496.726 174.686C497.452 173.771 498.401 173.314 499.573 173.314C501.583 173.314 502.597 174.448 502.614 176.716V183H500.988V176.707C500.982 176.021 500.824 175.515 500.514 175.187C500.209 174.858 499.731 174.694 499.081 174.694C498.554 174.694 498.091 174.835 497.692 175.116C497.294 175.397 496.983 175.767 496.761 176.224V183H495.135V173.49H496.673ZM514.708 183H513.073V172.163L509.795 173.367V171.891L514.453 170.142H514.708V183Z" fill="#8794BA"/>
<path d="M473.696 264H455.33V261.439L465.033 250.658C466.47 249.028 467.458 247.706 467.997 246.692C468.549 245.665 468.825 244.607 468.825 243.516C468.825 242.052 468.383 240.852 467.497 239.915C466.611 238.979 465.431 238.51 463.955 238.51C462.183 238.51 460.804 239.017 459.815 240.031C458.84 241.032 458.352 242.431 458.352 244.228H454.79C454.79 241.648 455.618 239.562 457.274 237.971C458.943 236.379 461.169 235.584 463.955 235.584C466.56 235.584 468.62 236.27 470.134 237.644C471.649 239.004 472.406 240.82 472.406 243.092C472.406 245.852 470.648 249.137 467.131 252.949L459.623 261.093H473.696V264ZM491.119 251.679C490.375 252.564 489.483 253.277 488.443 253.816C487.417 254.355 486.287 254.624 485.055 254.624C483.438 254.624 482.026 254.226 480.819 253.431C479.626 252.635 478.702 251.518 478.047 250.081C477.393 248.63 477.065 247.032 477.065 245.287C477.065 243.413 477.418 241.725 478.124 240.223C478.843 238.722 479.857 237.573 481.166 236.777C482.475 235.982 484.003 235.584 485.748 235.584C488.52 235.584 490.702 236.623 492.294 238.703C493.898 240.769 494.7 243.593 494.7 247.174V248.213C494.7 253.668 493.622 257.653 491.466 260.169C489.31 262.672 486.056 263.955 481.705 264.019H481.012V261.016H481.763C484.702 260.965 486.961 260.201 488.54 258.725C490.118 257.236 490.978 254.887 491.119 251.679ZM485.633 251.679C486.826 251.679 487.924 251.313 488.925 250.581C489.939 249.85 490.677 248.945 491.139 247.867V246.442C491.139 244.106 490.632 242.206 489.618 240.743C488.604 239.28 487.32 238.549 485.767 238.549C484.201 238.549 482.944 239.152 481.994 240.358C481.044 241.552 480.569 243.131 480.569 245.094C480.569 247.007 481.025 248.585 481.936 249.83C482.86 251.062 484.092 251.679 485.633 251.679ZM499.302 241.359C499.302 239.678 499.834 238.292 500.9 237.201C501.978 236.11 503.357 235.564 505.039 235.564C506.746 235.564 508.126 236.116 509.178 237.22C510.243 238.311 510.776 239.729 510.776 241.475V242.842C510.776 244.536 510.237 245.922 509.159 247C508.093 248.066 506.733 248.598 505.077 248.598C503.409 248.598 502.029 248.066 500.938 247C499.847 245.922 499.302 244.491 499.302 242.707V241.359ZM501.958 242.842C501.958 243.843 502.241 244.671 502.806 245.325C503.37 245.967 504.128 246.288 505.077 246.288C505.989 246.288 506.72 245.973 507.272 245.345C507.837 244.716 508.119 243.856 508.119 242.765V241.359C508.119 240.358 507.843 239.53 507.291 238.876C506.739 238.221 505.989 237.894 505.039 237.894C504.089 237.894 503.338 238.221 502.786 238.876C502.234 239.53 501.958 240.384 501.958 241.436V242.842ZM512.951 257.127C512.951 255.446 513.484 254.066 514.549 252.988C515.628 251.897 517.007 251.351 518.689 251.351C520.37 251.351 521.75 251.89 522.828 252.968C523.906 254.047 524.445 255.478 524.445 257.262V258.629C524.445 260.31 523.906 261.696 522.828 262.787C521.763 263.865 520.396 264.404 518.727 264.404C517.059 264.404 515.679 263.872 514.588 262.806C513.497 261.728 512.951 260.297 512.951 258.513V257.127ZM515.608 258.629C515.608 259.643 515.891 260.477 516.455 261.131C517.02 261.773 517.777 262.094 518.727 262.094C519.651 262.094 520.389 261.78 520.941 261.151C521.493 260.509 521.769 259.643 521.769 258.552V257.127C521.769 256.113 521.487 255.285 520.922 254.643C520.37 254.002 519.626 253.681 518.689 253.681C517.777 253.681 517.033 254.002 516.455 254.643C515.891 255.272 515.608 256.126 515.608 257.204V258.629ZM505.886 261.882L503.864 260.612L517.553 238.703L519.574 239.973L505.886 261.882Z" fill="#0088F0"/>
<path d="M453.8 290.157C453.8 289.226 453.981 288.388 454.345 287.644C454.714 286.899 455.224 286.325 455.874 285.921C456.53 285.517 457.277 285.314 458.115 285.314C459.41 285.314 460.456 285.763 461.253 286.659C462.056 287.556 462.457 288.748 462.457 290.236V290.351C462.457 291.276 462.278 292.108 461.921 292.847C461.569 293.579 461.062 294.15 460.4 294.561C459.744 294.971 458.988 295.176 458.133 295.176C456.844 295.176 455.798 294.728 454.995 293.831C454.198 292.935 453.8 291.748 453.8 290.271V290.157ZM455.435 290.351C455.435 291.405 455.678 292.252 456.164 292.891C456.656 293.529 457.312 293.849 458.133 293.849C458.959 293.849 459.615 293.526 460.102 292.882C460.588 292.231 460.831 291.323 460.831 290.157C460.831 289.114 460.582 288.271 460.084 287.626C459.592 286.976 458.936 286.65 458.115 286.65C457.312 286.65 456.665 286.97 456.173 287.608C455.681 288.247 455.435 289.161 455.435 290.351ZM472.529 290.351C472.529 291.798 472.198 292.964 471.536 293.849C470.874 294.733 469.978 295.176 468.847 295.176C467.692 295.176 466.784 294.81 466.122 294.077V298.656H464.496V285.49H465.981L466.061 286.545C466.723 285.725 467.643 285.314 468.82 285.314C469.963 285.314 470.865 285.745 471.527 286.606C472.195 287.468 472.529 288.666 472.529 290.201V290.351ZM470.903 290.166C470.903 289.094 470.675 288.247 470.218 287.626C469.761 287.005 469.134 286.694 468.337 286.694C467.353 286.694 466.614 287.131 466.122 288.004V292.548C466.608 293.415 467.353 293.849 468.354 293.849C469.134 293.849 469.752 293.541 470.209 292.926C470.672 292.305 470.903 291.385 470.903 290.166ZM476.81 283.188V285.49H478.585V286.747H476.81V292.645C476.81 293.025 476.889 293.312 477.047 293.506C477.205 293.693 477.475 293.787 477.855 293.787C478.043 293.787 478.301 293.752 478.629 293.682V295C478.201 295.117 477.785 295.176 477.381 295.176C476.654 295.176 476.106 294.956 475.737 294.517C475.368 294.077 475.184 293.453 475.184 292.645V286.747H473.452V285.49H475.184V283.188H476.81ZM482.259 295H480.633V285.49H482.259V295ZM480.501 282.968C480.501 282.704 480.58 282.481 480.738 282.3C480.902 282.118 481.143 282.027 481.459 282.027C481.775 282.027 482.016 282.118 482.18 282.3C482.344 282.481 482.426 282.704 482.426 282.968C482.426 283.231 482.344 283.451 482.18 283.627C482.016 283.803 481.775 283.891 481.459 283.891C481.143 283.891 480.902 283.803 480.738 283.627C480.58 283.451 480.501 283.231 480.501 282.968ZM484.438 290.157C484.438 289.226 484.62 288.388 484.983 287.644C485.353 286.899 485.862 286.325 486.513 285.921C487.169 285.517 487.916 285.314 488.754 285.314C490.049 285.314 491.095 285.763 491.892 286.659C492.694 287.556 493.096 288.748 493.096 290.236V290.351C493.096 291.276 492.917 292.108 492.56 292.847C492.208 293.579 491.701 294.15 491.039 294.561C490.383 294.971 489.627 295.176 488.771 295.176C487.482 295.176 486.437 294.728 485.634 293.831C484.837 292.935 484.438 291.748 484.438 290.271V290.157ZM486.073 290.351C486.073 291.405 486.316 292.252 486.803 292.891C487.295 293.529 487.951 293.849 488.771 293.849C489.598 293.849 490.254 293.526 490.74 292.882C491.227 292.231 491.47 291.323 491.47 290.157C491.47 289.114 491.221 288.271 490.723 287.626C490.23 286.976 489.574 286.65 488.754 286.65C487.951 286.65 487.304 286.97 486.812 287.608C486.319 288.247 486.073 289.161 486.073 290.351ZM496.673 285.49L496.726 286.686C497.452 285.771 498.401 285.314 499.573 285.314C501.583 285.314 502.597 286.448 502.614 288.716V295H500.988V288.707C500.982 288.021 500.824 287.515 500.514 287.187C500.209 286.858 499.731 286.694 499.081 286.694C498.554 286.694 498.091 286.835 497.692 287.116C497.294 287.397 496.983 287.767 496.761 288.224V295H495.135V285.49H496.673ZM517.749 295H509.364V293.831L513.794 288.909C514.45 288.165 514.901 287.562 515.147 287.099C515.399 286.63 515.525 286.146 515.525 285.648C515.525 284.98 515.323 284.433 514.919 284.005C514.515 283.577 513.976 283.363 513.302 283.363C512.493 283.363 511.863 283.595 511.412 284.058C510.967 284.515 510.744 285.153 510.744 285.974H509.118C509.118 284.796 509.496 283.844 510.252 283.117C511.014 282.391 512.03 282.027 513.302 282.027C514.491 282.027 515.432 282.341 516.123 282.968C516.814 283.589 517.16 284.418 517.16 285.455C517.16 286.715 516.357 288.215 514.752 289.955L511.324 293.673H517.749V295Z" fill="#8794BA"/>
<path d="M209.637 64H208.547V56.7754L206.361 57.5781V56.5938L209.467 55.4277H209.637V64ZM217.986 57.6953C217.986 58.1211 217.873 58.5 217.646 58.832C217.424 59.1641 217.121 59.4238 216.738 59.6113C217.184 59.8027 217.535 60.082 217.793 60.4492C218.055 60.8164 218.186 61.2324 218.186 61.6973C218.186 62.4355 217.936 63.0234 217.436 63.4609C216.939 63.8984 216.285 64.1172 215.473 64.1172C214.652 64.1172 213.994 63.8984 213.498 63.4609C213.006 63.0195 212.76 62.4316 212.76 61.6973C212.76 61.2363 212.885 60.8203 213.135 60.4492C213.389 60.0781 213.738 59.7969 214.184 59.6055C213.805 59.418 213.506 59.1582 213.287 58.8262C213.068 58.4941 212.959 58.1172 212.959 57.6953C212.959 56.9766 213.189 56.4062 213.65 55.9844C214.111 55.5625 214.719 55.3516 215.473 55.3516C216.223 55.3516 216.828 55.5625 217.289 55.9844C217.754 56.4062 217.986 56.9766 217.986 57.6953ZM217.102 61.6738C217.102 61.1973 216.949 60.8086 216.645 60.5078C216.344 60.207 215.949 60.0566 215.461 60.0566C214.973 60.0566 214.58 60.2051 214.283 60.502C213.99 60.7988 213.844 61.1895 213.844 61.6738C213.844 62.1582 213.986 62.5391 214.271 62.8164C214.561 63.0938 214.961 63.2324 215.473 63.2324C215.98 63.2324 216.379 63.0938 216.668 62.8164C216.957 62.5352 217.102 62.1543 217.102 61.6738ZM215.473 56.2422C215.047 56.2422 214.701 56.375 214.436 56.6406C214.174 56.9023 214.043 57.2598 214.043 57.7129C214.043 58.1465 214.172 58.498 214.43 58.7676C214.691 59.0332 215.039 59.166 215.473 59.166C215.906 59.166 216.252 59.0332 216.51 58.7676C216.771 58.498 216.902 58.1465 216.902 57.7129C216.902 57.2793 216.768 56.9258 216.498 56.6523C216.229 56.3789 215.887 56.2422 215.473 56.2422ZM221.918 60.8184H219.059V59.9336H221.918V60.8184ZM228.457 64H222.867V63.2207L225.82 59.9395C226.258 59.4434 226.559 59.041 226.723 58.7324C226.891 58.4199 226.975 58.0977 226.975 57.7656C226.975 57.3203 226.84 56.9551 226.57 56.6699C226.301 56.3848 225.941 56.2422 225.492 56.2422C224.953 56.2422 224.533 56.3965 224.232 56.7051C223.936 57.0098 223.787 57.4355 223.787 57.9824H222.703C222.703 57.1973 222.955 56.5625 223.459 56.0781C223.967 55.5938 224.645 55.3516 225.492 55.3516C226.285 55.3516 226.912 55.5605 227.373 55.9785C227.834 56.3926 228.064 56.9453 228.064 57.6367C228.064 58.4766 227.529 59.4766 226.459 60.6367L224.174 63.1152H228.457V64ZM234.182 61.1348H235.365V62.0195H234.182V64H233.092V62.0195H229.207V61.3809L233.027 55.4688H234.182V61.1348ZM230.438 61.1348H233.092V56.9512L232.963 57.1855L230.438 61.1348Z" fill="#8794BA"/>
<path d="M352.664 142H347.074V141.221L350.027 137.939C350.465 137.443 350.766 137.041 350.93 136.732C351.098 136.42 351.182 136.098 351.182 135.766C351.182 135.32 351.047 134.955 350.777 134.67C350.508 134.385 350.148 134.242 349.699 134.242C349.16 134.242 348.74 134.396 348.439 134.705C348.143 135.01 347.994 135.436 347.994 135.982H346.91C346.91 135.197 347.162 134.562 347.666 134.078C348.174 133.594 348.852 133.352 349.699 133.352C350.492 133.352 351.119 133.561 351.58 133.979C352.041 134.393 352.271 134.945 352.271 135.637C352.271 136.477 351.736 137.477 350.666 138.637L348.381 141.115H352.664V142ZM354.311 137.723L354.744 133.469H359.115V134.471H355.664L355.406 136.797C355.824 136.551 356.299 136.428 356.83 136.428C357.607 136.428 358.225 136.686 358.682 137.201C359.139 137.713 359.367 138.406 359.367 139.281C359.367 140.16 359.129 140.854 358.652 141.361C358.18 141.865 357.518 142.117 356.666 142.117C355.912 142.117 355.297 141.908 354.82 141.49C354.344 141.072 354.072 140.494 354.006 139.756H355.031C355.098 140.244 355.271 140.613 355.553 140.863C355.834 141.109 356.205 141.232 356.666 141.232C357.17 141.232 357.564 141.061 357.85 140.717C358.139 140.373 358.283 139.898 358.283 139.293C358.283 138.723 358.127 138.266 357.814 137.922C357.506 137.574 357.094 137.4 356.578 137.4C356.105 137.4 355.734 137.504 355.465 137.711L355.178 137.945L354.311 137.723ZM362.918 138.818H360.059V137.934H362.918V138.818ZM365.443 137.207H366.258C366.77 137.199 367.172 137.064 367.465 136.803C367.758 136.541 367.904 136.188 367.904 135.742C367.904 134.742 367.406 134.242 366.41 134.242C365.941 134.242 365.566 134.377 365.285 134.646C365.008 134.912 364.869 135.266 364.869 135.707H363.785C363.785 135.031 364.031 134.471 364.523 134.025C365.02 133.576 365.648 133.352 366.41 133.352C367.215 133.352 367.846 133.564 368.303 133.99C368.76 134.416 368.988 135.008 368.988 135.766C368.988 136.137 368.867 136.496 368.625 136.844C368.387 137.191 368.061 137.451 367.646 137.623C368.115 137.771 368.477 138.018 368.73 138.361C368.988 138.705 369.117 139.125 369.117 139.621C369.117 140.387 368.867 140.994 368.367 141.443C367.867 141.893 367.217 142.117 366.416 142.117C365.615 142.117 364.963 141.9 364.459 141.467C363.959 141.033 363.709 140.461 363.709 139.75H364.799C364.799 140.199 364.945 140.559 365.238 140.828C365.531 141.098 365.924 141.232 366.416 141.232C366.939 141.232 367.34 141.096 367.617 140.822C367.895 140.549 368.033 140.156 368.033 139.645C368.033 139.148 367.881 138.768 367.576 138.502C367.271 138.236 366.832 138.1 366.258 138.092H365.443V137.207ZM375.182 139.135H376.365V140.02H375.182V142H374.092V140.02H370.207V139.381L374.027 133.469H375.182V139.135ZM371.438 139.135H374.092V134.951L373.963 135.186L371.438 139.135Z" fill="#8794BA"/>
<path d="M348.65 268.207H349.465C349.977 268.199 350.379 268.064 350.672 267.803C350.965 267.541 351.111 267.188 351.111 266.742C351.111 265.742 350.613 265.242 349.617 265.242C349.148 265.242 348.773 265.377 348.492 265.646C348.215 265.912 348.076 266.266 348.076 266.707H346.992C346.992 266.031 347.238 265.471 347.73 265.025C348.227 264.576 348.855 264.352 349.617 264.352C350.422 264.352 351.053 264.564 351.51 264.99C351.967 265.416 352.195 266.008 352.195 266.766C352.195 267.137 352.074 267.496 351.832 267.844C351.594 268.191 351.268 268.451 350.854 268.623C351.322 268.771 351.684 269.018 351.938 269.361C352.195 269.705 352.324 270.125 352.324 270.621C352.324 271.387 352.074 271.994 351.574 272.443C351.074 272.893 350.424 273.117 349.623 273.117C348.822 273.117 348.17 272.9 347.666 272.467C347.166 272.033 346.916 271.461 346.916 270.75H348.006C348.006 271.199 348.152 271.559 348.445 271.828C348.738 272.098 349.131 272.232 349.623 272.232C350.146 272.232 350.547 272.096 350.824 271.822C351.102 271.549 351.24 271.156 351.24 270.645C351.24 270.148 351.088 269.768 350.783 269.502C350.479 269.236 350.039 269.1 349.465 269.092H348.65V268.207ZM354.311 268.723L354.744 264.469H359.115V265.471H355.664L355.406 267.797C355.824 267.551 356.299 267.428 356.83 267.428C357.607 267.428 358.225 267.686 358.682 268.201C359.139 268.713 359.367 269.406 359.367 270.281C359.367 271.16 359.129 271.854 358.652 272.361C358.18 272.865 357.518 273.117 356.666 273.117C355.912 273.117 355.297 272.908 354.82 272.49C354.344 272.072 354.072 271.494 354.006 270.756H355.031C355.098 271.244 355.271 271.613 355.553 271.863C355.834 272.109 356.205 272.232 356.666 272.232C357.17 272.232 357.564 272.061 357.85 271.717C358.139 271.373 358.283 270.898 358.283 270.293C358.283 269.723 358.127 269.266 357.814 268.922C357.506 268.574 357.094 268.4 356.578 268.4C356.105 268.4 355.734 268.504 355.465 268.711L355.178 268.945L354.311 268.723ZM362.918 269.818H360.059V268.934H362.918V269.818ZM368.443 270.135H369.627V271.02H368.443V273H367.354V271.02H363.469V270.381L367.289 264.469H368.443V270.135ZM364.699 270.135H367.354V265.951L367.225 266.186L364.699 270.135ZM375.182 270.135H376.365V271.02H375.182V273H374.092V271.02H370.207V270.381L374.027 264.469H375.182V270.135ZM371.438 270.135H374.092V265.951L373.963 266.186L371.438 270.135Z" fill="#8794BA"/>
<path d="M210.65 355.135H211.834V356.02H210.65V358H209.561V356.02H205.676V355.381L209.496 349.469H210.65V355.135ZM206.906 355.135H209.561V350.951L209.432 351.186L206.906 355.135ZM213.311 353.723L213.744 349.469H218.115V350.471H214.664L214.406 352.797C214.824 352.551 215.299 352.428 215.83 352.428C216.607 352.428 217.225 352.686 217.682 353.201C218.139 353.713 218.367 354.406 218.367 355.281C218.367 356.16 218.129 356.854 217.652 357.361C217.18 357.865 216.518 358.117 215.666 358.117C214.912 358.117 214.297 357.908 213.82 357.49C213.344 357.072 213.072 356.494 213.006 355.756H214.031C214.098 356.244 214.271 356.613 214.553 356.863C214.834 357.109 215.205 357.232 215.666 357.232C216.17 357.232 216.564 357.061 216.85 356.717C217.139 356.373 217.283 355.898 217.283 355.293C217.283 354.723 217.127 354.266 216.814 353.922C216.506 353.574 216.094 353.4 215.578 353.4C215.105 353.4 214.734 353.504 214.465 353.711L214.178 353.945L213.311 353.723ZM221.918 354.818H219.059V353.934H221.918V354.818ZM223.365 353.723L223.799 349.469H228.17V350.471H224.719L224.461 352.797C224.879 352.551 225.354 352.428 225.885 352.428C226.662 352.428 227.279 352.686 227.736 353.201C228.193 353.713 228.422 354.406 228.422 355.281C228.422 356.16 228.184 356.854 227.707 357.361C227.234 357.865 226.572 358.117 225.721 358.117C224.967 358.117 224.352 357.908 223.875 357.49C223.398 357.072 223.127 356.494 223.061 355.756H224.086C224.152 356.244 224.326 356.613 224.607 356.863C224.889 357.109 225.26 357.232 225.721 357.232C226.225 357.232 226.619 357.061 226.904 356.717C227.193 356.373 227.338 355.898 227.338 355.293C227.338 354.723 227.182 354.266 226.869 353.922C226.561 353.574 226.148 353.4 225.633 353.4C225.16 353.4 224.789 353.504 224.52 353.711L224.232 353.945L223.365 353.723ZM234.182 355.135H235.365V356.02H234.182V358H233.092V356.02H229.207V355.381L233.027 349.469H234.182V355.135ZM230.438 355.135H233.092V350.951L232.963 351.186L230.438 355.135Z" fill="#8794BA"/>
<path d="M65.5723 268.723L66.0059 264.469H70.377V265.471H66.9258L66.668 267.797C67.0859 267.551 67.5605 267.428 68.0918 267.428C68.8691 267.428 69.4863 267.686 69.9434 268.201C70.4004 268.713 70.6289 269.406 70.6289 270.281C70.6289 271.16 70.3906 271.854 69.9141 272.361C69.4414 272.865 68.7793 273.117 67.9277 273.117C67.1738 273.117 66.5586 272.908 66.082 272.49C65.6055 272.072 65.334 271.494 65.2676 270.756H66.293C66.3594 271.244 66.5332 271.613 66.8145 271.863C67.0957 272.109 67.4668 272.232 67.9277 272.232C68.4316 272.232 68.8262 272.061 69.1113 271.717C69.4004 271.373 69.5449 270.898 69.5449 270.293C69.5449 269.723 69.3887 269.266 69.0762 268.922C68.7676 268.574 68.3555 268.4 67.8398 268.4C67.3672 268.4 66.9961 268.504 66.7266 268.711L66.4395 268.945L65.5723 268.723ZM72.3105 268.723L72.7441 264.469H77.1152V265.471H73.6641L73.4062 267.797C73.8242 267.551 74.2988 267.428 74.8301 267.428C75.6074 267.428 76.2246 267.686 76.6816 268.201C77.1387 268.713 77.3672 269.406 77.3672 270.281C77.3672 271.16 77.1289 271.854 76.6523 272.361C76.1797 272.865 75.5176 273.117 74.666 273.117C73.9121 273.117 73.2969 272.908 72.8203 272.49C72.3438 272.072 72.0723 271.494 72.0059 270.756H73.0312C73.0977 271.244 73.2715 271.613 73.5527 271.863C73.834 272.109 74.2051 272.232 74.666 272.232C75.1699 272.232 75.5645 272.061 75.8496 271.717C76.1387 271.373 76.2832 270.898 76.2832 270.293C76.2832 269.723 76.127 269.266 75.8145 268.922C75.5059 268.574 75.0938 268.4 74.5781 268.4C74.1055 268.4 73.7344 268.504 73.4648 268.711L73.1777 268.945L72.3105 268.723ZM80.918 269.818H78.0586V268.934H80.918V269.818ZM86.1211 264.463V265.383H85.9219C85.0781 265.398 84.4062 265.648 83.9062 266.133C83.4062 266.617 83.1172 267.299 83.0391 268.178C83.4883 267.662 84.1016 267.404 84.8789 267.404C85.6211 267.404 86.2129 267.666 86.6543 268.189C87.0996 268.713 87.3223 269.389 87.3223 270.217C87.3223 271.096 87.082 271.799 86.6016 272.326C86.125 272.854 85.4844 273.117 84.6797 273.117C83.8633 273.117 83.2012 272.805 82.6934 272.18C82.1855 271.551 81.9316 270.742 81.9316 269.754V269.338C81.9316 267.768 82.2656 266.568 82.9336 265.74C83.6055 264.908 84.6035 264.482 85.9277 264.463H86.1211ZM84.6973 268.307C84.3262 268.307 83.9844 268.418 83.6719 268.641C83.3594 268.863 83.1426 269.143 83.0215 269.479V269.877C83.0215 270.58 83.1797 271.146 83.4961 271.576C83.8125 272.006 84.207 272.221 84.6797 272.221C85.168 272.221 85.5508 272.041 85.8281 271.682C86.1094 271.322 86.25 270.852 86.25 270.27C86.25 269.684 86.1074 269.211 85.8223 268.852C85.541 268.488 85.166 268.307 84.6973 268.307ZM93.1816 270.135H94.3652V271.02H93.1816V273H92.0918V271.02H88.207V270.381L92.0273 264.469H93.1816V270.135ZM89.4375 270.135H92.0918V265.951L91.9629 266.186L89.4375 270.135Z" fill="#8794BA"/>
<path d="M74.3203 133.463V134.383H74.1211C73.2773 134.398 72.6055 134.648 72.1055 135.133C71.6055 135.617 71.3164 136.299 71.2383 137.178C71.6875 136.662 72.3008 136.404 73.0781 136.404C73.8203 136.404 74.4121 136.666 74.8535 137.189C75.2988 137.713 75.5215 138.389 75.5215 139.217C75.5215 140.096 75.2812 140.799 74.8008 141.326C74.3242 141.854 73.6836 142.117 72.8789 142.117C72.0625 142.117 71.4004 141.805 70.8926 141.18C70.3848 140.551 70.1309 139.742 70.1309 138.754V138.338C70.1309 136.768 70.4648 135.568 71.1328 134.74C71.8047 133.908 72.8027 133.482 74.127 133.463H74.3203ZM72.8965 137.307C72.5254 137.307 72.1836 137.418 71.8711 137.641C71.5586 137.863 71.3418 138.143 71.2207 138.479V138.877C71.2207 139.58 71.3789 140.146 71.6953 140.576C72.0117 141.006 72.4062 141.221 72.8789 141.221C73.3672 141.221 73.75 141.041 74.0273 140.682C74.3086 140.322 74.4492 139.852 74.4492 139.27C74.4492 138.684 74.3066 138.211 74.0215 137.852C73.7402 137.488 73.3652 137.307 72.8965 137.307ZM77.3027 137.723L77.7363 133.469H82.1074V134.471H78.6562L78.3984 136.797C78.8164 136.551 79.291 136.428 79.8223 136.428C80.5996 136.428 81.2168 136.686 81.6738 137.201C82.1309 137.713 82.3594 138.406 82.3594 139.281C82.3594 140.16 82.1211 140.854 81.6445 141.361C81.1719 141.865 80.5098 142.117 79.6582 142.117C78.9043 142.117 78.2891 141.908 77.8125 141.49C77.3359 141.072 77.0645 140.494 76.998 139.756H78.0234C78.0898 140.244 78.2637 140.613 78.5449 140.863C78.8262 141.109 79.1973 141.232 79.6582 141.232C80.1621 141.232 80.5566 141.061 80.8418 140.717C81.1309 140.373 81.2754 139.898 81.2754 139.293C81.2754 138.723 81.1191 138.266 80.8066 137.922C80.498 137.574 80.0859 137.4 79.5703 137.4C79.0977 137.4 78.7266 137.504 78.457 137.711L78.1699 137.945L77.3027 137.723ZM86.7598 137.424H89.1387V138.449H86.7598V141.145H85.6699V138.449H83.291V137.424H85.6699V134.934H86.7598V137.424Z" fill="#8794BA"/>
</svg>
